<svg width="593" height="593" viewBox="0 0 593 593" fill="none" xmlns="http://www.w3.org/2000/svg">
<path d="M204.846 492.475C130.299 492.475 69.8673 457.583 69.8673 414.543C69.8673 371.502 130.299 336.611 204.846 336.611C279.393 336.611 339.825 371.502 339.825 414.543C339.825 457.583 279.393 492.475 204.846 492.475Z" fill="#E0E0E0"/>
<path d="M386.612 538.907C312.066 538.907 251.634 504.015 251.634 460.974C251.634 417.934 312.066 383.042 386.612 383.042C461.159 383.042 521.591 417.934 521.591 460.974C521.591 504.015 461.159 538.907 386.612 538.907Z" fill="#E0E0E0"/>
<path d="M356.986 66.7362C358.018 68.4203 358.243 70.4603 359.038 72.263C360.224 74.9671 362.702 77.007 363.877 79.6992C364.576 81.4988 364.724 83.4659 364.302 85.35C363.879 87.234 362.905 88.9496 361.505 90.2783C360.069 91.5694 358.324 92.4665 356.439 92.8822C354.554 93.2979 352.593 93.218 350.748 92.6503C348.174 91.8557 345.826 90.5274 343.252 89.7209C340.88 89.0093 338.508 89.0093 336.243 87.8589C334.132 86.8424 332.472 85.0807 331.582 82.9133C331.051 81.5996 330.939 80.1538 331.262 78.7741C331.748 76.4021 332.827 73.1525 334.82 71.6581C336.812 70.1638 338.888 69.974 340.951 69.1557C343.015 68.3373 344.865 66.6651 346.81 65.4079C350.119 63.2138 354.614 62.9766 356.986 66.7362Z" fill="#EBEBEB"/>
<path d="M364.659 73.532C364.401 72.8874 364.203 72.2204 364.066 71.5395C363.839 70.6623 363.871 69.7378 364.16 68.8786C364.448 68.0195 364.98 67.2628 365.691 66.7006C366.917 65.5984 368.32 64.7121 369.842 64.0796C370.961 63.5292 372.163 63.1685 373.4 63.0122C373.804 62.9593 374.215 62.9968 374.602 63.1219C374.99 63.247 375.345 63.4567 375.642 63.7356C375.993 64.2047 376.234 64.7468 376.347 65.3216C376.46 65.8965 376.442 66.4895 376.294 67.0564C376.045 68.842 375.499 70.5735 374.681 72.18C374.061 73.5221 373.125 74.694 371.953 75.5956C371.365 76.0395 370.683 76.3438 369.96 76.4856C369.237 76.6273 368.491 76.6029 367.779 76.414C366.506 75.9824 365.451 75.0721 364.837 73.8759C364.771 73.7651 364.711 73.6503 364.659 73.532Z" fill="#EBEBEB"/>
<path d="M369.89 55.991C370.827 53.3107 370.898 50.4168 368.775 48.3532C366.296 45.9812 362.572 48.199 360.817 50.3694C358.782 52.7084 357.603 55.6691 357.472 58.7663C357.567 62.6682 361.03 64.2812 364.375 62.7394C367.024 61.2973 369.004 58.8749 369.89 55.991Z" fill="#EBEBEB"/>
<path d="M338.235 65.23C338.849 64.8852 339.433 64.4885 339.979 64.044C340.706 63.5109 341.267 62.7815 341.594 61.9413C341.922 61.101 342.003 60.1848 341.829 59.3C341.621 57.6665 341.132 56.0814 340.382 54.6153C339.874 53.4828 339.189 52.438 338.354 51.5198C338.075 51.2217 337.734 50.9886 337.354 50.837C336.975 50.6853 336.567 50.6188 336.16 50.6422C335.59 50.7758 335.057 51.0361 334.601 51.4036C334.146 51.7711 333.778 52.2364 333.527 52.7651C332.58 54.3002 331.887 55.9783 331.475 57.7345C331.094 59.1607 331.062 60.6575 331.38 62.099C331.548 62.817 331.877 63.4877 332.341 64.0608C332.805 64.6338 333.393 65.0944 334.061 65.4079C335.31 65.9056 336.702 65.9056 337.951 65.4079L338.235 65.23Z" fill="#EBEBEB"/>
<path d="M344.936 47.5586C345.956 44.9019 347.783 42.6604 350.736 42.4707C354.187 42.2453 355.563 46.3607 355.48 49.1597C355.515 52.2578 354.499 55.2764 352.598 57.7226C349.989 60.6283 346.324 59.6202 344.758 56.2757C343.683 53.4572 343.747 50.3308 344.936 47.5586Z" fill="#EBEBEB"/>
<path d="M533.7 49.812C535.36 50.1085 536.784 51.1522 538.444 51.674C540.816 52.4568 543.532 52.0535 545.928 52.86C547.482 53.4486 548.824 54.49 549.779 55.8496C550.735 57.2092 551.261 58.8243 551.288 60.486C551.282 62.1357 550.848 63.7556 550.029 65.1877C549.21 66.6198 548.034 67.8153 546.615 68.6575C544.635 69.8435 542.441 70.5551 540.46 71.7293C538.669 72.7967 537.282 74.3385 535.254 75.1094C533.4 75.859 531.336 75.9012 529.454 75.228C528.288 74.8035 527.284 74.0236 526.584 72.9983C525.398 71.3616 523.915 68.788 524.081 66.6769C524.248 64.5658 525.351 63.1189 526.015 61.3636C526.538 59.4244 526.868 57.438 526.999 55.4336C527.604 52.184 530.023 49.1478 533.7 49.812Z" fill="#EBEBEB"/>
<path d="M542.476 48.8276C541.904 48.6145 541.348 48.3567 540.816 48.0567C540.13 47.6962 539.564 47.1448 539.185 46.4692C538.806 45.7936 538.631 45.0226 538.681 44.2497C538.681 42.8395 538.922 41.4398 539.393 40.1105C539.714 39.089 540.194 38.1244 540.816 37.2523C541.016 36.9651 541.277 36.7259 541.581 36.5516C541.884 36.3773 542.222 36.2723 542.571 36.2442C543.07 36.2925 543.551 36.4518 543.98 36.7104C544.409 36.969 544.774 37.3203 545.05 37.7385C546.05 38.9219 546.851 40.2597 547.422 41.6998C547.917 42.8626 548.121 44.1288 548.015 45.3882C547.961 46.0165 547.764 46.6242 547.439 47.1648C547.114 47.7054 546.67 48.1646 546.141 48.5074C545.137 49.0678 543.955 49.2166 542.844 48.9225L542.476 48.8276Z" fill="#EBEBEB"/>
<path d="M534.364 35.4495C533.178 33.3147 531.411 31.6188 528.885 31.7848C525.932 32.022 525.22 35.58 525.6 37.952C525.897 40.5893 527.08 43.0478 528.956 44.9257C531.482 47.0961 534.471 45.8389 535.432 42.8265C536.045 40.3221 535.662 37.6773 534.364 35.4495Z" fill="#EBEBEB"/>
<path d="M522.042 60.7943C522.182 60.2185 522.27 59.6309 522.302 59.0391C522.394 58.2699 522.259 57.4907 521.913 56.7975C521.567 56.1042 521.027 55.5271 520.357 55.1371C519.193 54.3371 517.902 53.7397 516.539 53.37C515.528 53.0412 514.47 52.8809 513.407 52.8956C513.059 52.8996 512.716 52.9804 512.402 53.1321C512.089 53.2838 511.812 53.5027 511.593 53.7732C511.352 54.2107 511.212 54.6967 511.183 55.1954C511.154 55.6941 511.238 56.1929 511.427 56.6552C511.855 58.138 512.524 59.5404 513.407 60.8062C514.088 61.8735 515.021 62.7572 516.123 63.3798C516.674 63.6857 517.286 63.8627 517.915 63.8977C518.543 63.9326 519.172 63.8245 519.753 63.5815C520.779 63.0607 521.565 62.1644 521.947 61.079L522.042 60.7943Z" fill="#EBEBEB"/>
<path d="M514.724 46.4437C513.633 44.2615 513.241 41.8183 514.819 39.8377C516.657 37.4657 520.061 39.0194 521.793 40.6679C523.771 42.4368 525.092 44.8239 525.54 47.44C525.884 50.7489 523.168 52.5042 520.132 51.5673C517.729 50.6317 515.788 48.7926 514.724 46.4437Z" fill="#EBEBEB"/>
<path d="M117.212 60.486C117.805 62.2887 117.544 64.2456 117.877 66.1076C118.387 68.9066 120.249 71.3379 120.699 74.1487C120.945 75.9872 120.638 77.8571 119.819 79.5211C119 81.1851 117.704 82.5681 116.098 83.4944C114.466 84.3739 112.634 84.8134 110.781 84.7698C108.928 84.7261 107.118 84.2007 105.53 83.2453C103.312 81.917 101.415 80.138 99.197 78.8097C97.1808 77.6237 94.9156 77.0544 93.0773 75.4652C91.3425 74.0356 90.1943 72.0177 89.8514 69.7961C89.6613 68.4439 89.8889 67.066 90.5036 65.8467C91.488 63.7949 93.2433 60.9723 95.4137 59.9997C97.5841 59.0272 99.6003 59.3593 101.699 59.0747C103.799 58.79 105.922 57.6396 108.033 56.8924C111.638 55.5878 115.884 56.3943 117.212 60.486Z" fill="#EBEBEB"/>
<path d="M122.87 68.5271C122.78 67.8669 122.745 67.2005 122.763 66.5346C122.753 65.6637 122.995 64.8085 123.46 64.0721C123.925 63.3357 124.593 62.7493 125.384 62.3836C126.779 61.6327 128.29 61.1235 129.855 60.8774C131.023 60.6246 132.225 60.5605 133.413 60.6876C133.801 60.7321 134.174 60.8614 134.506 61.0663C134.838 61.2713 135.121 61.5469 135.334 61.8736C135.557 62.3889 135.66 62.948 135.635 63.5089C135.611 64.0697 135.459 64.6176 135.192 65.1114C134.545 66.7193 133.644 68.2129 132.524 69.5352C131.633 70.6428 130.49 71.5211 129.191 72.0969C128.541 72.378 127.836 72.5069 127.129 72.4741C126.422 72.4412 125.732 72.2473 125.111 71.9072C124.025 71.211 123.248 70.124 122.941 68.871L122.87 68.5271Z" fill="#EBEBEB"/>
<path d="M131.741 53.37C133.223 51.0692 133.959 48.3888 132.441 45.9812C130.673 43.1704 126.688 44.4276 124.554 46.0524C122.119 47.7882 120.343 50.2959 119.513 53.1684C118.719 56.8331 121.565 59.0984 125.052 58.4461C127.861 57.6975 130.264 55.8743 131.741 53.37Z" fill="#EBEBEB"/>
<path d="M100.11 54.7339C100.753 54.5619 101.38 54.3357 101.984 54.0579C102.794 53.7339 103.492 53.1812 103.993 52.4673C104.495 51.7534 104.777 50.9091 104.807 50.0373C104.967 48.4486 104.855 46.8442 104.475 45.2933C104.26 44.1224 103.86 42.9933 103.289 41.9488C103.099 41.6055 102.836 41.3083 102.518 41.0786C102.201 40.849 101.836 40.6925 101.45 40.6205C100.872 40.6075 100.299 40.7294 99.7762 40.9764C99.2533 41.2234 98.7951 41.5889 98.438 42.0437C97.2205 43.2762 96.2112 44.6981 95.4493 46.254C94.7694 47.4999 94.3992 48.8911 94.37 50.3101C94.3607 51.0072 94.5083 51.6974 94.8019 52.3297C95.0955 52.962 95.5275 53.5202 96.066 53.963C97.1245 54.7049 98.4315 55.0029 99.707 54.7932L100.11 54.7339Z" fill="#EBEBEB"/>
<path d="M110.369 39.8022C111.935 37.5606 114.141 35.8646 116.94 36.3628C120.225 36.9439 120.498 41.1068 119.857 43.6922C119.168 46.5788 117.531 49.1511 115.208 50.998C112.113 53.1209 108.922 51.3419 108.222 47.8551C107.865 44.9939 108.635 42.1058 110.369 39.8022Z" fill="#EBEBEB"/>
<path d="M244.553 91.571C246.795 92.5317 248.455 94.4649 250.542 95.722C253.673 97.6196 257.587 97.9161 260.695 99.8493C262.678 101.176 264.22 103.064 265.127 105.271C266.033 107.478 266.261 109.905 265.783 112.243C265.236 114.564 264.097 116.704 262.475 118.452C260.853 120.201 258.805 121.498 256.532 122.217C253.365 123.225 250.044 123.534 246.866 124.589C243.996 125.503 241.541 127.222 238.445 127.637C235.582 128.093 232.651 127.476 230.214 125.906C228.752 124.94 227.622 123.549 226.977 121.921C225.791 119.229 224.605 115.137 225.518 112.207C226.372 109.527 228.459 107.629 229.977 105.352C231.495 103.075 232.183 100.063 233.274 97.4062C235.136 92.8163 239.513 89.4007 244.553 91.571Z" fill="#F5F5F5"/>
<path d="M257.172 93.0061C256.456 92.5299 255.782 91.9943 255.156 91.405C254.309 90.6753 253.691 89.7157 253.377 88.6423C253.063 87.5689 253.068 86.4276 253.389 85.3564C253.851 83.364 254.654 81.4663 255.761 79.7466C256.517 78.4187 257.478 77.2181 258.607 76.1886C258.983 75.8544 259.427 75.6059 259.908 75.4605C260.389 75.3151 260.896 75.2762 261.394 75.3466C262.082 75.5785 262.709 75.9623 263.228 76.4694C263.748 76.9764 264.146 77.5939 264.395 78.276C265.392 80.2696 266.057 82.4129 266.364 84.6211C266.687 86.418 266.565 88.2667 266.008 90.0055C265.712 90.8537 265.231 91.6252 264.599 92.2634C263.967 92.9015 263.2 93.3903 262.355 93.694C260.768 94.1413 259.07 93.963 257.611 93.1959C257.461 93.1404 257.315 93.0771 257.172 93.0061Z" fill="#F5F5F5"/>
<path d="M250.104 71.5276C249.155 68.1475 247.198 65.1588 243.581 64.5658C239.358 63.8779 237.176 68.7761 236.927 72.2274C236.678 75.6786 237.259 80.1261 239.453 83.1149C242.312 87.0049 246.937 86.2103 249.262 82.2728C251.112 79.1418 251.052 74.9433 250.104 71.5276Z" fill="#F5F5F5"/>
<path d="M224.474 103.182C224.863 102.422 225.18 101.628 225.423 100.81C225.801 99.7567 225.865 98.616 225.606 97.5271C225.347 96.4383 224.776 95.4484 223.964 94.6784C222.574 93.1825 220.943 91.9315 219.137 90.978C217.821 90.1913 216.387 89.6188 214.891 89.2821C214.398 89.1769 213.888 89.1809 213.396 89.2935C212.904 89.4062 212.443 89.6249 212.045 89.9344C211.562 90.4728 211.205 91.1118 211 91.8051C210.795 92.4984 210.747 93.2287 210.859 93.943C210.979 96.1734 211.463 98.3689 212.294 100.442C212.914 102.156 213.935 103.697 215.271 104.937C215.949 105.546 216.755 105.994 217.629 106.248C218.504 106.503 219.425 106.557 220.323 106.408C221.938 106.01 223.336 105.003 224.225 103.597C224.315 103.463 224.399 103.325 224.474 103.182Z" fill="#F5F5F5"/>
<path d="M218.829 80.648C217.999 77.2323 218.248 73.6624 221.118 71.3853C224.462 68.7168 228.756 71.9309 230.606 74.8129C232.456 77.6949 234.164 81.9289 233.725 85.558C233.132 90.302 228.708 91.9031 224.759 89.6023C221.663 87.764 219.659 84.0281 218.829 80.648Z" fill="#F5F5F5"/>
<path d="M42.5181 166.04C44.131 166.645 45.3882 167.949 46.9062 168.78C49.1952 169.966 51.9705 170.084 54.2357 171.353C55.6891 172.224 56.8493 173.508 57.5678 175.042C58.2862 176.576 58.5301 178.29 58.2681 179.964C57.9615 181.63 57.2276 183.187 56.1382 184.485C55.0489 185.782 53.6414 186.774 52.0535 187.364C49.8476 188.183 47.4992 188.55 45.2814 189.345C43.2771 190.092 41.593 191.385 39.4107 191.788C37.3864 192.226 35.2713 191.892 33.4807 190.851C32.4079 190.217 31.5552 189.269 31.0376 188.135C30.1362 186.261 29.1281 183.391 29.6855 181.292C30.1955 179.359 31.6068 177.947 32.6031 176.275C33.4804 174.435 34.1717 172.512 34.6667 170.535C35.8765 167.226 38.8652 164.652 42.5181 166.04Z" fill="#F5F5F5"/>
<path d="M51.5079 166.597C50.9822 166.288 50.4859 165.93 50.0254 165.53C49.3993 165.043 48.928 164.385 48.669 163.636C48.41 162.886 48.3745 162.077 48.5667 161.308C48.8284 159.882 49.3296 158.51 50.0492 157.252C50.5359 156.281 51.1723 155.392 51.9349 154.619C52.1915 154.368 52.4991 154.176 52.8369 154.055C53.1746 153.934 53.5345 153.888 53.8918 153.919C54.3859 154.058 54.8427 154.306 55.2285 154.645C55.6143 154.983 55.9194 155.404 56.1215 155.876C56.8974 157.258 57.446 158.755 57.7463 160.312C58.0256 161.576 58.0012 162.889 57.6751 164.142C57.5034 164.766 57.192 165.342 56.7646 165.826C56.3372 166.311 55.8049 166.693 55.2082 166.941C54.0924 167.325 52.8707 167.257 51.8044 166.752L51.5079 166.597Z" fill="#F5F5F5"/>
<path d="M45.7677 151.618C44.9731 149.246 43.4787 147.194 40.9051 146.874C37.8808 146.53 36.505 150.088 36.4457 152.531C36.2827 155.25 37.0479 157.943 38.6161 160.169C40.7628 162.826 44.0243 162.102 45.5423 159.232C46.5992 156.819 46.6799 154.09 45.7677 151.618Z" fill="#F5F5F5"/>
<path d="M28.6774 174.947C28.9243 174.388 29.1227 173.808 29.2704 173.215C29.5016 172.456 29.507 171.646 29.2859 170.884C29.0648 170.121 28.6268 169.44 28.0251 168.922C26.9856 167.909 25.7827 167.079 24.4671 166.467C23.5065 165.953 22.4693 165.596 21.3954 165.411C21.0428 165.348 20.6803 165.365 20.3352 165.461C19.9901 165.558 19.6713 165.731 19.4029 165.969C19.0786 166.367 18.8475 166.832 18.7265 167.331C18.6054 167.829 18.5974 168.349 18.7032 168.851C18.8672 170.427 19.2878 171.965 19.9485 173.405C20.4411 174.602 21.2188 175.661 22.2137 176.489C22.7119 176.901 23.2982 177.194 23.9275 177.344C24.5567 177.494 25.2121 177.498 25.8429 177.354C26.9735 177.025 27.9309 176.268 28.5114 175.243L28.6774 174.947Z" fill="#F5F5F5"/>
<path d="M23.8979 159.102C23.1981 156.73 23.2574 154.18 25.2025 152.46C27.4915 150.456 30.6462 152.591 32.0931 154.571C33.7708 156.713 34.6775 159.358 34.6668 162.079C34.4059 165.494 31.3223 166.752 28.4403 165.257C26.1823 163.875 24.5526 161.667 23.8979 159.102Z" fill="#F5F5F5"/>
<path d="M534.53 262.758C535.455 264.442 535.562 266.447 536.25 268.249C537.27 270.954 539.559 272.993 540.555 275.745C541.148 277.535 541.194 279.462 540.687 281.279C540.18 283.096 539.143 284.72 537.709 285.945C536.231 287.132 534.47 287.914 532.599 288.216C530.728 288.517 528.81 288.327 527.035 287.664C524.58 286.751 522.362 285.292 519.919 284.415C517.689 283.584 515.317 283.454 513.194 282.209C511.194 281.103 509.67 279.301 508.913 277.144C508.47 275.833 508.441 274.417 508.83 273.088C509.434 270.847 510.656 267.692 512.648 266.328C514.641 264.964 516.705 264.905 518.756 264.229C520.808 263.553 522.706 262.011 524.686 260.884C528.066 258.951 532.455 258.951 534.53 262.758Z" fill="#F5F5F5"/>
<path d="M541.694 269.779C541.474 269.135 541.316 268.472 541.219 267.799C541.045 266.933 541.126 266.035 541.453 265.214C541.779 264.393 542.336 263.684 543.058 263.173C544.305 262.146 545.722 261.344 547.244 260.801C548.378 260.33 549.578 260.042 550.802 259.947C551.202 259.922 551.602 259.984 551.975 260.129C552.348 260.275 552.684 260.5 552.961 260.79C553.275 261.265 553.479 261.804 553.559 262.368C553.639 262.932 553.593 263.507 553.423 264.051C553.049 265.793 552.397 267.463 551.49 268.997C550.819 270.272 549.846 271.363 548.655 272.175C548.059 272.578 547.378 272.84 546.665 272.94C545.952 273.041 545.225 272.978 544.54 272.756C543.323 272.262 542.342 271.32 541.8 270.123C541.777 270.005 541.729 269.898 541.694 269.779Z" fill="#F5F5F5"/>
<path d="M547.73 252.974C548.786 250.412 549.011 247.589 547.054 245.466C544.765 242.988 541.018 244.98 539.191 247.008C537.085 249.173 535.773 251.986 535.467 254.99C535.36 258.797 538.622 260.552 541.99 259.224C544.645 257.968 546.705 255.726 547.73 252.974Z" fill="#F5F5F5"/>
<path d="M516.384 260.232C516.995 259.938 517.582 259.597 518.14 259.212C518.884 258.737 519.475 258.056 519.841 257.252C520.207 256.448 520.333 255.555 520.203 254.682C520.076 253.076 519.675 251.503 519.017 250.033C518.584 248.902 517.972 247.849 517.203 246.913C516.947 246.607 516.628 246.361 516.268 246.191C515.907 246.021 515.514 245.931 515.115 245.929C514.537 246.021 513.987 246.244 513.508 246.581C513.029 246.919 512.634 247.361 512.352 247.874C511.347 249.323 510.582 250.925 510.087 252.618C509.635 253.99 509.521 255.45 509.755 256.876C509.875 257.578 510.151 258.244 510.561 258.827C510.971 259.41 511.506 259.894 512.127 260.244C513.324 260.786 514.685 260.841 515.922 260.398L516.384 260.232Z" fill="#F5F5F5"/>
<path d="M523.856 243.415C525.042 240.877 526.892 238.777 529.786 238.754C533.166 238.754 534.281 242.81 534.056 245.538C533.917 248.562 532.759 251.45 530.771 253.733C528.078 256.425 524.568 255.251 523.216 251.895C522.321 249.092 522.551 246.051 523.856 243.415Z" fill="#F5F5F5"/>
<path d="M312.985 319.034C313.756 316.472 314.634 313.946 315.642 311.467C318.963 303.355 323.624 295.871 328.273 288.447C332.677 281.394 337.085 274.342 341.497 267.289C345.399 261.039 350.178 255.014 351.863 247.744C358.267 220.276 337.18 205.984 335.508 198.015C333.835 190.045 350.985 191.183 363.319 215.971C372.558 234.531 371.265 253.365 361.552 271.985C354.211 286.051 343.762 298.35 336.278 312.214C329.672 324.442 329.957 339.149 331.333 352.977C332.329 362.892 333.788 373.021 331.546 382.734C330.171 388.664 325.818 398.828 319.188 400.524C311.479 402.576 306.462 394.594 306.652 387.941C306.918 384.665 307.361 381.407 307.981 378.18C308.55 372.716 308.705 367.217 308.443 361.73C308.23 347.427 308.906 332.756 312.985 319.034Z" fill="#37474F"/>
<path d="M174.84 318.856C172.884 319.935 171.031 321.19 169.302 322.604C166.412 325.034 163.845 327.824 161.664 330.906C152.176 343.952 148.499 361.991 155.307 376.614C162.518 392.032 180.414 400.987 197.445 400.038C189.997 403.442 180.948 400.809 173.097 403.24C169.135 404.426 166.159 408.767 165.4 412.847C164.641 416.926 165.886 421.149 171.045 421.149C171.045 423.153 174.84 426.806 181.565 424.968C181.909 426.438 182.751 429.107 193.97 427.221C205.19 425.335 238.018 412.028 251.373 404.414C256.674 401.616 261.637 398.218 266.162 394.286C274.357 387.17 279.777 376.875 282.244 366.201C285.352 352.705 284.272 338.603 282.41 324.881C279.41 302.786 274.108 276.895 249.036 270.906C246.17 270.116 243.163 269.978 240.236 270.503C235.587 271.511 231.78 274.962 229.183 278.959C223.253 288.139 223.004 299.797 223.644 310.72C224.166 319.674 217.524 315.263 211.784 314.278C205.937 313.252 199.988 312.933 194.065 313.329C187.338 313.79 180.785 315.674 174.84 318.856Z" fill="#37474F"/>
<path d="M171.045 421.113C170.25 416.369 170.547 410.688 175.042 408.743C179.537 406.798 187.756 407.249 187.756 407.249C187.756 407.249 176.833 405.6 172.8 408.15C168.768 410.7 169.74 417.472 171.045 421.113Z" fill="#263238"/>
<path d="M181.565 424.896C180.77 420.152 181.067 414.471 185.562 412.526C190.057 410.581 198.276 411.032 198.276 411.032C198.276 411.032 187.352 409.395 183.32 411.933C179.288 414.471 180.272 421.267 181.565 424.896Z" fill="#263238"/>
<path d="M205.475 386.138C207.716 386.375 210.219 385.272 210.978 383.125C209.021 388.047 212.164 393.882 216.789 396.444C221.414 399.006 227.06 398.935 232.278 398.069C250.91 394.974 267.858 381.382 273.266 363.272C276.136 353.63 275.769 343.252 273.776 333.385C270.736 318.704 264.303 304.94 254.99 293.191C247.874 284.142 238.6 276.113 227.38 273.444C216.16 270.776 202.853 274.725 197.244 284.806C195.442 288.298 194.289 292.087 193.84 295.99C191.788 310.317 194.563 324.81 192.82 339.149C191.705 348.269 189.44 357.626 191.207 366.818C192.689 374.266 196.473 385.177 205.475 386.138Z" fill="#F0F0F0"/>
<path d="M255.713 345.897C250.519 343.406 244.482 343.193 238.789 344.047C234.638 344.675 230.262 346.051 227.795 349.443C227.25 346.656 223.253 345.885 220.881 347.403C218.509 348.921 217.382 351.791 216.421 354.46C215.769 350.463 214.713 345.909 211.096 344.059C207.479 342.208 202.45 344.735 199.948 347.617C197.994 350.007 196.578 352.79 195.797 355.776C195.168 354.472 193.318 354.495 191.954 354.934C191.549 355.063 191.153 355.218 190.768 355.397C190.42 359.216 190.584 363.065 191.254 366.842C192.678 374.29 196.461 385.201 205.486 386.162C207.728 386.399 210.23 385.296 210.989 383.149C209.033 388.071 212.175 393.906 216.801 396.468C221.426 399.03 227.072 398.959 232.29 398.093C237.703 397.175 242.94 395.423 247.815 392.898C253.883 386.19 258.847 378.559 262.521 370.293C264.134 366.806 265.605 363.082 265.403 359.239C265.095 353.428 260.92 348.387 255.713 345.897Z" fill="#E0E0E0"/>
<path d="M149.519 235.053C149.151 235.706 148.796 236.346 148.44 237.01C142.664 247.684 138.952 260.41 142.818 272.4C146.886 284.936 158.236 295.373 168.91 302.466C174.733 306.332 191.895 315.761 197.054 306.178C198.453 303.58 198.37 300.485 198.453 297.532C198.572 293.784 199.094 289.835 201.347 286.858C203.601 283.881 208.072 282.244 211.25 284.237C213.8 285.838 214.713 289.099 215.01 292.088C215.306 295.077 215.2 298.232 216.492 300.936C216.774 301.638 217.273 302.232 217.916 302.632C218.853 303.118 219.991 302.857 221.011 303.106C227.546 304.672 225.625 322.402 224.961 327.111C224.664 329.198 224.711 331.926 226.68 332.685C228.068 333.219 229.562 332.377 230.855 331.653C233.85 329.99 237.087 328.809 240.45 328.154C241.636 327.929 243.094 327.953 243.521 329.032C243.948 330.111 243.047 331.013 242.335 331.843C241.201 333.281 240.502 335.013 240.319 336.836C240.269 337.081 240.27 337.333 240.321 337.578C240.372 337.823 240.472 338.054 240.616 338.259C240.979 338.569 241.443 338.734 241.92 338.722C244.553 338.935 247.21 338.591 249.855 338.662C256.9 338.816 263.363 345.328 263.031 352.42C245.739 345.138 229.242 357.045 219.837 370.862C214.592 378.424 212.082 387.548 212.721 396.729C213.14 404.002 215.643 411.002 219.932 416.891C224.984 424.197 238.908 432.688 247.079 432.451C243.281 433.626 239.4 434.514 235.468 435.108C223.324 437.171 219.517 435.902 213.456 437.788C209.483 438.974 206.506 443.315 205.747 447.395C204.988 451.475 206.234 455.697 211.393 455.697C211.452 457.701 215.188 461.366 221.912 459.516C222.256 460.998 223.099 463.655 234.318 461.769C245.538 459.883 278.437 446.482 291.756 438.879C297.05 436.074 302.007 432.676 306.534 428.751C314.729 421.635 320.149 411.34 322.616 400.666C325.723 387.158 324.644 373.068 322.782 359.334C315.002 302.074 283.715 273.871 271.962 261.987C262.77 252.701 252.132 245.632 240.805 239.24C230.203 233.251 226.348 230.819 217.963 222.316C214.18 218.497 207.847 209.163 204.455 204.988C201.442 201.288 195.275 195.192 191.409 188.977C191.409 188.977 179.418 200.007 175.481 203.387C165.056 212.357 156.271 223.073 149.519 235.053Z" fill="#455A64"/>
<path d="M211.464 455.649C210.669 450.905 210.978 445.224 215.461 443.279C219.944 441.334 228.175 441.785 228.175 441.785C228.175 441.785 217.251 440.136 213.219 442.674C209.187 445.213 210.159 452.008 211.464 455.649Z" fill="#263238"/>
<path d="M221.984 459.433C221.189 454.689 221.486 449.008 225.98 447.063C230.475 445.118 238.694 445.568 238.694 445.568C238.694 445.568 227.771 443.92 223.739 446.47C219.707 449.02 220.679 455.792 221.984 459.433Z" fill="#263238"/>
<path d="M92.3658 299.382C91.1111 304.081 90.7768 308.978 91.3814 313.804C92.0746 317.804 93.27 321.702 94.9394 325.403C99.4061 336.033 105.239 346.036 112.291 355.16C112.978 356.061 109.836 357.022 110.962 357.152C112.089 357.283 114.295 358.48 115.291 357.84C121.221 354.08 126.345 340.572 130.638 335.614C132.844 333.076 137.09 333.005 140.185 334.345C143.717 335.891 147.35 337.191 151.061 338.235C157.169 340.074 159.434 340.026 163.81 340.607C166.55 352.538 168.163 368.134 169.266 383.967C170.369 399.801 177.26 411.115 176.121 419.69C174.983 428.265 172.563 442.71 164.261 452.079C156.445 460.891 149.507 459.824 150.385 469.359C150.563 470.261 151.689 473.937 155.651 473.771C156.943 477.733 162.292 477.033 162.292 477.033C162.292 477.033 164.154 482.038 179.715 477.092C187.945 474.471 189.464 464.165 191.041 459.041C193.378 451.576 196.15 444.253 199.343 437.112C201.505 432.34 202.741 427.2 202.984 421.967C205.048 420.864 209.27 423.212 209.27 423.212C209.27 423.212 209.412 417.804 204.846 415.278C210.942 412.04 208.558 406.656 208.558 406.656C208.558 406.656 205.297 410.89 202.296 406.762C199.296 402.635 200.268 386.351 202.296 361.92C204.324 337.488 206.234 327.727 210.064 314.753C220.288 280.181 186.344 194.777 163.123 196.01C146.969 197.054 117.805 200.197 114.283 228.234C113.002 238.374 109.314 247.91 106.266 257.587C104.807 262.248 104.309 267.075 102.708 271.748C101 276.848 98.7583 281.758 96.7065 286.715C94.9344 290.819 93.4832 295.054 92.3658 299.382Z" fill="#455A64"/>
<path d="M162.245 477.057C161.474 475.005 160.774 471.613 163.751 470.166C166.728 468.719 170.155 466.821 170.155 466.821C170.155 466.821 163.502 469.016 162.019 470.024C160.537 471.032 160.051 473.926 162.245 477.057Z" fill="#37474F"/>
<path d="M155.603 473.807C154.832 471.743 154.133 468.351 157.109 466.916C160.086 465.481 163.514 463.572 163.514 463.572C163.514 463.572 156.86 465.766 155.378 466.774C153.895 467.782 153.409 470.664 155.603 473.807Z" fill="#37474F"/>
<path d="M140.256 247.661C141.475 250.798 143.068 253.776 145 256.532C148.558 261.501 153.302 265.439 157.477 269.957C161.652 274.476 165.139 280.015 165.293 286.134C165.293 285.719 159.814 283.881 159.209 283.667C160.146 286.039 162.162 288.079 163.099 290.653C164.146 293.52 164.59 296.573 164.403 299.619C162.589 297.032 160.279 294.831 157.608 293.144C158.663 293.808 159.185 297.994 159.422 299.168C159.859 301.32 160.089 303.508 160.11 305.703C160.11 309.261 160.039 312.819 160.11 316.449C160.371 324.667 161.166 332.768 163.739 340.631C160.151 340.48 156.591 339.932 153.124 338.994C146.957 337.386 140.99 335.091 135.334 332.151C125.846 327.312 121.257 322.912 115.267 314.148C98.5685 289.728 108.08 255.595 128.396 236.488C129.369 235.471 130.54 234.664 131.836 234.116C132.49 233.854 133.203 233.778 133.898 233.895C134.593 234.012 135.242 234.318 135.773 234.781C136.434 235.584 136.865 236.551 137.019 237.58C137.864 241.01 138.946 244.379 140.256 247.661Z" fill="#F0F0F0"/>
<path d="M99.1971 117.284C94.5479 118.351 88.523 119.893 85.1904 123.403C83.4324 125.397 82.1437 127.76 81.4189 130.318C80.2552 134.102 79.3907 137.973 78.8334 141.893C77.0426 152.923 75.9752 164.712 80.6954 174.828C82.6049 178.944 85.5462 178.244 89.199 176.773C96.8132 173.702 101.676 166.099 104.676 158.521C108.394 149.344 111.625 139.978 114.354 130.46C114.817 128.752 114.852 126.689 115.422 125.076C116.086 123.214 117.794 121.363 118.92 119.727C119.359 119.051 119.786 118.09 119.205 117.533C118.866 117.274 118.443 117.151 118.019 117.189C111.911 116.809 105.554 115.801 99.5054 117.189L99.1971 117.284Z" fill="black"/>
<path d="M112.457 205.024C114.081 208.309 115.101 217.714 114.259 227.783C118.576 229.752 144.016 232.527 161.486 224.735C182.834 215.164 192.322 205.498 198.619 198.287C184.174 174.484 185.016 146.993 185.016 146.993L112.457 205.024Z" fill="#455A64"/>
<path d="M133.152 117.201C116.548 115.92 112.35 120.545 106.017 125.289C99.6834 130.033 96.0186 136.034 93.445 140.707C90.8714 145.38 93.2552 154.654 92.259 157.94C91.2628 161.225 83.2098 168.614 81.0276 174.425C78.8453 180.236 80.9564 185.301 82.8303 193.069C84.7042 200.837 90.7172 201.81 90.7172 201.81C93.4219 206.04 97.6025 209.113 102.447 210.432C110.262 212.341 121.091 207.277 121.091 207.277C121.091 207.277 125.775 212.365 136.722 208.938C152.781 203.885 154.429 206.293 162.98 202.865C177.9 196.876 178.944 189.76 184.66 175.991C190.377 162.221 189.95 148.558 173.488 132.595C160.573 120.059 146.993 118.268 133.152 117.201Z" fill="#455A64"/>
<path d="M117.865 191.539C117.802 191.67 117.779 191.817 117.8 191.96C117.821 192.104 117.883 192.239 117.98 192.347C118.077 192.455 118.204 192.532 118.344 192.569C118.485 192.605 118.633 192.599 118.77 192.551C118.908 192.503 119.027 192.415 119.115 192.299C119.202 192.183 119.254 192.044 119.262 191.899C119.27 191.754 119.236 191.61 119.162 191.485C119.089 191.359 118.98 191.259 118.849 191.195C118.762 191.153 118.667 191.128 118.57 191.122C118.474 191.117 118.377 191.13 118.285 191.162C118.194 191.194 118.11 191.244 118.037 191.309C117.965 191.373 117.907 191.452 117.865 191.539Z" fill="#37474F"/>
<path d="M111.318 190.377C111.236 190.553 111.226 190.755 111.29 190.939C111.354 191.123 111.488 191.274 111.662 191.361C111.793 191.424 111.94 191.446 112.083 191.426C112.227 191.405 112.362 191.343 112.47 191.246C112.578 191.149 112.655 191.022 112.692 190.881C112.728 190.741 112.722 190.592 112.674 190.455C112.626 190.318 112.538 190.198 112.422 190.111C112.306 190.023 112.167 189.972 112.022 189.964C111.877 189.955 111.733 189.99 111.607 190.064C111.482 190.137 111.381 190.246 111.318 190.377Z" fill="#37474F"/>
<path d="M112.99 196.105C112.927 196.236 112.905 196.383 112.926 196.527C112.946 196.67 113.009 196.805 113.106 196.913C113.203 197.021 113.329 197.098 113.47 197.135C113.611 197.171 113.759 197.165 113.896 197.117C114.033 197.069 114.153 196.981 114.24 196.865C114.328 196.75 114.379 196.61 114.388 196.465C114.396 196.32 114.361 196.176 114.288 196.051C114.214 195.925 114.105 195.825 113.975 195.761C113.887 195.719 113.793 195.694 113.696 195.689C113.599 195.683 113.502 195.697 113.411 195.728C113.319 195.76 113.235 195.81 113.163 195.875C113.091 195.939 113.032 196.018 112.99 196.105Z" fill="#37474F"/>
<path d="M100.81 197.991C100.13 197.399 99.3764 196.897 98.5685 196.496C97.8504 196.082 97.1645 195.614 96.5167 195.097C96.3372 194.95 96.1187 194.86 95.8881 194.836C95.5727 194.855 95.2741 194.985 95.0461 195.204C93.5643 196.379 92.2722 197.775 91.2153 199.343C91.1734 199.397 91.1523 199.464 91.156 199.533C91.156 199.533 91.2153 199.604 91.2628 199.639C92.7045 200.674 94.372 201.35 96.1271 201.612C97.8823 201.874 99.6746 201.714 101.356 201.146C102.032 200.908 103.277 200.47 102.66 199.663C102.104 199.042 101.484 198.481 100.81 197.991Z" fill="black"/>
<path opacity="0.1" d="M124.945 150.764C126.013 148.879 127.104 146.839 129.001 145.795C131.8 144.265 135.299 145.404 138.062 146.981C141.798 149.151 145.178 152.33 146.542 156.469C146.718 156.901 146.768 157.374 146.684 157.833C146.545 158.257 146.275 158.626 145.914 158.888C143.989 160.281 141.644 160.968 139.272 160.833C136.9 160.69 134.519 160.746 132.156 161C128.076 161.735 124.838 164.427 121.482 166.68C120.237 167.511 117.924 169.432 116.406 169.42C114.556 169.42 114.461 167.76 115.161 166.348C117.936 160.833 121.945 156.137 124.945 150.764Z" fill="black"/>
<path opacity="0.1" d="M92.2946 157.951C93.1129 155.129 92.2353 151.808 92.2234 148.938C92.2115 146.068 96.0067 144.312 98.3313 143.47C99.8612 142.901 101.652 142.498 103.075 143.328C103.751 143.825 104.28 144.495 104.608 145.267C104.936 146.039 105.049 146.885 104.937 147.716C104.641 152.721 99.9324 155.603 95.983 157.868C95.2358 158.295 94.4886 158.711 93.7296 159.054C92.6859 159.624 91.6541 160.24 90.6104 160.798C91.3613 159.975 91.9346 159.006 92.2946 157.951Z" fill="black"/>
<path d="M106.657 174.14C107.598 175.078 108.319 176.212 108.768 177.461C109.086 178.365 109.219 179.323 109.157 180.279C109.096 181.234 108.843 182.168 108.412 183.024C107.333 185.123 105.376 185.965 103.206 186.582C103.145 186.605 103.077 186.605 103.016 186.582C102.945 186.548 102.89 186.488 102.862 186.415C102.721 186.135 102.642 185.828 102.632 185.515C102.622 185.201 102.68 184.89 102.803 184.601C103.067 184.194 103.26 183.745 103.372 183.273C103.38 183.007 103.291 182.748 103.12 182.544C102.949 182.341 102.71 182.207 102.447 182.17C100.442 181.956 100.739 184.542 100.763 185.728C100.802 186.052 100.749 186.381 100.608 186.676C100.44 186.923 100.212 187.124 99.9442 187.258L96.3862 189.44C96.0891 189.668 95.7376 189.815 95.3663 189.867C95.0369 189.878 94.7091 189.817 94.4056 189.689C93.2908 189.328 92.2889 188.684 91.4987 187.819C90.7085 186.954 90.1571 185.898 89.8988 184.755C89.7446 183.866 89.8277 182.94 89.6616 182.039C89.6499 181.911 89.6111 181.786 89.5477 181.674C89.4844 181.561 89.3979 181.463 89.294 181.387C88.7959 181.09 88.0487 181.588 87.8471 182.027C87.6454 182.466 87.847 183.996 87.2066 183.142C86.7601 182.269 86.5053 181.311 86.4594 180.331C85.9969 176.773 87.3371 172.504 91.073 171.401C92.4822 171.043 93.9399 170.915 95.39 171.021C97.4148 171.095 99.4301 171.337 101.415 171.745C102.652 171.966 103.851 172.365 104.973 172.931C105.584 173.26 106.15 173.666 106.657 174.14Z" fill="#263238"/>
<path d="M91.0137 197.588C91.9237 197.008 92.7953 196.37 93.6229 195.678C94.2172 194.847 94.5627 193.864 94.6191 192.844C94.7377 191.8 94.714 190.744 94.7852 189.701C94.7852 189.44 94.8563 189.12 95.0935 189.013C95.2272 188.975 95.3704 188.989 95.4938 189.053C95.6173 189.117 95.7116 189.226 95.7577 189.357C95.8311 189.619 95.8512 189.893 95.817 190.163C95.7628 191.346 96.051 192.52 96.6472 193.543C97.2793 194.381 98.1224 195.036 99.0903 195.441C103.443 197.884 106.42 201.881 111.626 202.806C114.185 203.17 116.795 202.818 119.167 201.79C121.538 200.763 123.579 199.099 125.064 196.983C126.107 195.5 126.961 193.899 127.958 192.393C128.064 192.239 128.23 192.061 128.396 192.144C128.45 192.187 128.491 192.244 128.514 192.309C128.537 192.374 128.542 192.444 128.527 192.512C128.444 194.563 127.068 196.461 126.036 198.169C124.696 200.591 122.67 202.563 120.213 203.838C116.762 205.451 112.741 206.435 109.171 205.107C106.994 204.095 104.992 202.742 103.241 201.098C101.996 200.09 100.703 199.141 99.3631 198.24C98.1584 197.646 97.0245 196.918 95.983 196.07C95.8614 195.937 95.7466 195.799 95.6391 195.654C95.0487 196.681 94.2387 197.563 93.2671 198.24C92.512 198.763 91.8739 199.438 91.3932 200.221C91.115 200.723 90.9075 201.262 90.7765 201.822C90.0429 201.695 89.3439 201.416 88.7247 201.003C89.1972 199.695 89.9831 198.522 91.0137 197.588Z" fill="#263238"/>
<path d="M157.631 121.138C160.525 117.426 165.388 118.481 169.076 119.822C174.603 121.838 180.616 122.288 186.178 124.305C191.978 126.404 197.576 130.08 200.09 135.702C201.881 139.675 201.94 144.182 201.857 148.546C201.851 156.105 200.976 163.639 199.248 170.997C197.659 177.212 195.405 185.004 189.997 188.787C187.886 190.282 185.253 191.48 182.751 190.709C179.952 189.819 178.493 186.819 177.509 184.067C172.077 169.041 171.033 152.413 163.443 138.347C162.008 135.678 160.074 132.939 157.145 132.192C156.03 131.907 154.69 131.859 154.026 130.911C153.795 130.459 153.674 129.959 153.674 129.452C153.674 128.945 153.795 128.445 154.026 127.993C154.903 125.551 156.116 123.244 157.631 121.138Z" fill="black"/>
<path d="M134.018 203.067C137.208 200.98 141.039 199.96 144.692 198.928C148.332 198.004 151.9 196.815 155.366 195.37C158.424 194.067 161.164 192.117 163.395 189.653C164.348 188.569 165.169 187.374 165.838 186.095C166.536 184.468 167.084 182.781 167.475 181.055C167.582 180.699 168.4 179.999 168.59 180.675C169.444 183.605 167.843 187.091 166.277 189.511C164.268 192.439 161.545 194.806 158.367 196.39C154.928 198.125 151.298 199.45 147.55 200.339C145.451 200.885 143.328 201.359 141.217 201.893C138.845 202.486 136.556 203.316 134.172 203.814C133.769 203.897 133.733 203.233 134.018 203.067Z" fill="#263238"/>
<path d="M142.569 136.01C145.487 137.612 148.677 140.161 149.887 143.376C150.242 144.324 150.836 146.032 149.638 146.613C148.44 147.194 146.483 145.759 145.51 145.036C143.445 143.689 141.312 142.45 139.118 141.324C138.137 140.823 137.251 140.157 136.497 139.355C133.496 135.797 138.869 134.208 141.549 135.489C141.893 135.655 142.237 135.821 142.569 136.01Z" fill="#37474F"/>
<path d="M102.553 130.46C99.3157 131.255 95.5798 132.903 93.5873 135.69C92.9943 136.52 91.9862 138.062 92.9943 138.881C94.0024 139.699 96.2558 138.881 97.3825 138.43C99.7185 137.656 102.094 137.007 104.498 136.485C105.571 136.268 106.599 135.866 107.535 135.299C111.354 132.607 106.586 129.725 103.645 130.27C103.289 130.27 102.921 130.353 102.553 130.46Z" fill="#37474F"/>
<path d="M126.57 154.88C127.661 153.499 129.173 152.513 130.875 152.069C132.623 151.712 134.434 151.835 136.117 152.425C137.31 152.816 138.378 153.516 139.213 154.453C139.889 155.224 140.909 156.754 140.731 157.857C140.434 159.707 137.019 157.192 136.248 156.825C134.933 156.193 133.496 155.853 132.037 155.829C130.562 155.934 129.101 156.18 127.673 156.564C126.285 156.801 125.716 156.03 126.57 154.88Z" fill="#263238"/>
<path d="M89.6498 150.883C90.6065 149.674 91.93 148.808 93.4212 148.416C94.9477 148.1 96.5317 148.211 97.9992 148.736C99.0469 149.071 99.9851 149.681 100.715 150.503C101.507 151.3 101.98 152.359 102.043 153.48C101.771 155.105 98.7939 152.899 98.1178 152.579C96.967 152.021 95.7081 151.722 94.4294 151.701C93.1385 151.796 91.8596 152.015 90.6104 152.354C89.4007 152.567 88.95 151.891 89.6498 150.883Z" fill="#263238"/>
<path d="M194.801 189.76C185.514 202.272 159.114 214.571 137.351 214.571C115.588 214.571 113.631 211.689 113.631 211.689L114.236 227.795C114.236 227.795 123.344 230.926 138.062 230.831C152.781 230.736 183.771 224.664 201.086 201.11L194.801 189.76Z" fill="#92E3A9"/>
<path d="M118.671 352.942C119.061 351.574 119.229 350.152 119.169 348.731C118.6 333.444 115.35 317.895 107.582 304.541C99.5529 290.795 89.5786 279.066 87.2659 262.663C86.5306 257.481 86.5425 251.989 84.2772 247.317C83.2572 245.217 81.834 243.332 80.8734 241.209C79.2841 237.651 79.1181 233.63 78.2879 229.811C77.766 226.904 76.4199 224.207 74.4097 222.043C73.5621 221.19 72.5528 220.514 71.4409 220.056C70.329 219.598 69.1367 219.366 67.9341 219.374C67.519 214.109 62.0753 210.622 57.5803 212.555C56.5739 211.258 55.1899 210.305 53.6191 209.827C52.1836 209.392 50.644 209.446 49.2427 209.981C45.9931 211.061 44.0955 215.2 44.7715 218.414C44.8865 218.798 44.9425 219.198 44.9376 219.6C44.8404 220.052 44.6593 220.483 44.4039 220.869C41.7472 225.613 41 232.551 44.9494 236.737C46.1354 238.018 47.701 238.967 48.8158 240.295C51.3776 243.45 51.081 248.028 52.611 251.8C53.9393 255.085 56.6078 257.611 58.9561 260.268C68.1239 270.657 71.16 283.027 73.9353 296.381C75.4296 303.592 76.9596 311.93 78.027 319.224C79.1119 327.225 80.9586 335.104 83.5419 342.754C87.3727 353.665 95.5916 361.09 107.677 360.271C109.97 360.189 112.215 359.593 114.247 358.528C116.398 357.319 117.988 355.312 118.671 352.942Z" fill="#455A64"/>
<path d="M85.5107 347.32C87.202 350.933 89.7968 354.048 93.0441 356.364C96.2914 358.681 100.081 360.121 104.048 360.544C109.883 361.22 117.272 359.512 119.063 353.12C119.604 351.168 119.773 349.132 119.561 347.118C119.273 339.198 118.103 331.333 116.074 323.671C112.385 307.957 101.984 295.516 94.4056 281.722C90.606 274.875 88.2451 267.324 87.4675 259.532C87.0287 255.642 86.7085 251.586 85.0955 247.838C83.4826 244.091 80.8141 241.28 80.1143 237.271C79.2248 233.512 79.0825 229.432 77.3628 225.731C76.6222 223.824 75.3343 222.178 73.6609 221.001C71.9875 219.823 70.0033 219.167 67.9578 219.113L68.2306 219.374C68.0513 217.517 67.2516 215.775 65.9606 214.428C64.6696 213.081 62.9625 212.208 61.1146 211.95C59.9033 211.8 58.6739 211.98 57.5566 212.472H57.6871C56.7312 211.215 55.3998 210.294 53.8858 209.844C52.3718 209.394 50.7539 209.438 49.2665 209.969C50.7387 209.442 52.3485 209.442 53.8207 209.969C55.3051 210.508 56.6052 211.458 57.5685 212.709C58.6753 212.26 59.8787 212.101 61.0641 212.249C62.2495 212.396 63.3775 212.844 64.3405 213.551C65.3312 214.243 66.1492 215.154 66.7312 216.214C67.3132 217.273 67.6436 218.452 67.6969 219.659C77.1849 219.944 77.9677 230.12 79.2248 237.449C79.8297 241.422 82.5219 244.719 84.1112 248.242C86.9339 255.524 85.9139 263.909 88.6772 271.321C92.2352 282.719 99.5173 292.468 105.649 302.501C114.093 315.808 117.758 331.534 118.695 347.142C119.561 353.357 116.489 358.694 109.978 359.654C105.125 360.498 100.13 359.754 95.735 357.532C91.3396 355.309 87.7788 351.728 85.5818 347.32H85.5107Z" fill="#37474F"/>
<path d="M53.0617 235.279C54.9593 231.721 52.5161 228.163 49.6816 226.158C48.1279 225.043 45.8864 224.581 44.5462 226.241C43.8838 227.148 43.5005 228.228 43.4432 229.349C43.1941 231.216 43.6142 233.111 44.6292 234.698C45.2509 235.535 46.0331 236.241 46.9301 236.773C47.4889 237.143 48.1125 237.405 48.7684 237.544C49.6301 237.654 50.5048 237.495 51.2731 237.09C52.0415 236.685 52.666 236.052 53.0617 235.279Z" fill="#37474F"/>
<path d="M53.0617 235.279C54.6272 232.539 53.3226 229.194 51.2352 227.095C49.0767 224.498 44.8308 223.265 43.3246 227.273C42.776 228.756 42.678 230.368 43.0431 231.906C43.4082 233.445 44.22 234.841 45.3764 235.919C47.8077 238.149 51.3064 238.433 53.0617 235.279ZM53.0617 235.279C51.2234 238.398 47.9619 237.923 45.7678 235.504C43.7278 233.464 43.55 230.203 44.3802 227.676C45.4476 224.474 48.9581 225.637 50.8438 227.499C53.0735 229.325 54.6153 232.539 53.0617 235.279Z" fill="#263238"/>
<path d="M52.3145 214.666C52.6648 214.795 52.9959 214.97 53.2989 215.188C54.2003 215.936 54.9116 216.887 55.3744 217.963C56.4104 220.092 57.0532 222.39 57.272 224.747C57.4379 225.973 57.3327 227.22 56.9636 228.4C55.6353 232.088 50.2272 230.618 48.5193 227.973C48.0678 227.235 47.7243 226.436 47.4993 225.601C46.7803 222.792 46.9883 219.826 48.0923 217.145C48.4034 216.125 49.0788 215.255 49.9899 214.702C50.3552 214.54 50.7493 214.454 51.1486 214.447C51.548 214.441 51.9445 214.516 52.3145 214.666Z" fill="#37474F"/>
<path d="M52.3145 214.666C56.1571 216.184 58.0428 225.257 56.3231 228.637C54.6034 231.507 49.7053 229.61 48.543 227.012C46.4912 224.083 46.8826 212.875 52.3145 214.666ZM52.3145 214.666C51.8929 214.521 51.446 214.463 51.0015 214.498C50.5569 214.533 50.1242 214.659 49.7304 214.868C49.3366 215.077 48.99 215.365 48.7123 215.714C48.4346 216.063 48.2316 216.465 48.116 216.896C46.3726 220.845 45.744 226.585 49.4325 229.693C51.6029 231.436 55.7301 232.065 57.1771 229.088C58.8612 225.47 56.0978 216.125 52.3145 214.666Z" fill="#263238"/>
<path d="M63.5815 217.75C64.8282 219.183 65.747 220.87 66.2737 222.695C66.7952 224.392 66.7952 226.205 66.2737 227.902C65.9654 228.839 65.6688 230.048 64.7082 230.511C63.2319 231.019 61.6162 230.934 60.2014 230.274C59.5142 230.061 58.8684 229.732 58.2919 229.301C56.1927 227.617 55.8488 223.917 55.6116 221.438C55.3507 218.663 56.7383 214.796 60.237 215.508C61.5678 215.868 62.7432 216.655 63.5815 217.75Z" fill="#37474F"/>
<path d="M63.5815 217.75C65.7993 220.335 67.1395 224.095 66.167 227.427C65.9481 228.235 65.6039 229.003 65.147 229.704C64.044 230.831 62.0634 230.333 60.6758 229.847C58.0429 229.183 56.9992 226.929 56.5129 224.356C56.0835 222.692 55.9352 220.968 56.0741 219.256C56.7738 214.69 60.9367 214.512 63.5815 217.75ZM63.5815 217.75C60.8774 214.369 56.5841 214.524 55.5167 219.137C55.1966 220.918 55.1966 222.741 55.5167 224.522C55.8132 227.273 57.2482 230.203 60.2607 230.867C63.6764 231.934 66.0128 231.4 66.6532 227.582C67.3648 224.024 65.7756 220.466 63.5222 217.75H63.5815Z" fill="#263238"/>
<path d="M50.1797 237.295C50.1999 236.403 50.3395 235.517 50.5948 234.662C51.9587 230.191 56.4655 228.934 60.6283 230.143C65.1404 231.571 68.9075 234.72 71.1126 238.908C72.2986 241.138 72.8204 243.972 71.4209 246.024C71.0184 246.6 70.4874 247.075 69.8699 247.41C69.2524 247.746 68.5653 247.933 67.8629 247.957C65.7163 247.957 63.7238 246.475 61.5771 246.676C58.6952 246.949 55.9081 249.475 53.1921 246.925C52.0741 245.725 51.3105 244.239 50.9861 242.632C50.4492 240.904 50.1773 239.104 50.1797 237.295Z" fill="#263238"/>
<path d="M71.9072 236.915C69.7961 237.923 66.0602 235.836 65.0284 233.962C64.8095 233.532 64.6385 233.078 64.5184 232.61C63.9304 230.282 64.1349 227.824 65.0996 225.625C65.3611 225.022 65.7843 224.504 66.3222 224.127C66.8602 223.75 67.492 223.53 68.1476 223.49C69.7961 223.49 71.1126 224.842 71.9784 226.241C73.4727 228.637 75.5364 235.16 71.9072 236.915Z" fill="#37474F"/>
<path d="M71.9072 236.915C69.1557 237.9 65.3724 235.433 64.7912 232.681C64.2101 229.93 64.5184 226.313 66.6651 224.557C71.4091 221.331 76.6868 234.875 71.8716 236.915H71.9072ZM71.9072 236.915C76.3191 234.721 73.1881 223.597 68.6338 222.992C63.7119 222.683 63.1189 229.337 64.2931 232.836C65.064 235.587 69.1794 237.935 71.9072 236.915Z" fill="#263238"/>
<path d="M76.6512 261.857C76.9793 262.184 77.2155 262.592 77.3362 263.04C77.4569 263.487 77.4579 263.959 77.3391 264.407C76.9003 265.593 75.4059 266.008 74.125 266.221L73.1999 266.387C72.3402 266.578 71.4559 266.634 70.5789 266.553C67.4123 266.091 65.9416 262.082 68.788 260.114C70.8991 258.643 74.2436 259.746 76.0463 261.3C76.2659 261.465 76.4685 261.652 76.6512 261.857Z" fill="#37474F"/>
<path d="M66.8667 218.687C66.7438 218.222 66.68 217.744 66.677 217.263C66.6841 217.05 66.7484 216.843 66.8632 216.664C66.9779 216.484 67.1389 216.339 67.3293 216.243C67.6908 216.141 68.0778 216.184 68.4085 216.362C69.0197 216.565 69.5831 216.891 70.0643 217.319C70.5455 217.747 70.9345 218.269 71.2075 218.853C71.3301 219.213 71.3605 219.598 71.296 219.973C71.2314 220.347 71.0741 220.7 70.8382 220.998C70.6023 221.297 70.2955 221.531 69.9456 221.681C69.5958 221.83 69.2141 221.889 68.8355 221.853C67.8986 221.782 67.187 220.074 66.8667 218.687Z" fill="#E0E0E0"/>
<path d="M83.2928 250.388C82.8407 250.051 82.4164 249.678 82.0238 249.273C80.7192 248.087 81.9526 246.048 82.5338 244.696C82.7266 243.997 83.0181 243.33 83.3996 242.715C83.8502 242.24 84.1467 242.596 84.5856 243.047C84.9869 243.538 85.2709 244.114 85.4157 244.731C85.7549 245.938 85.9069 247.19 85.8664 248.443C85.8723 248.984 85.7547 249.52 85.5225 250.009C85.3961 250.248 85.2064 250.447 84.9742 250.585C84.742 250.723 84.4762 250.795 84.206 250.792C83.8744 250.73 83.5618 250.592 83.2928 250.388Z" fill="#E0E0E0"/>
<path d="M59.7151 214.358C59.4612 214.499 59.1754 214.572 58.8849 214.571C57.6159 214.5 57.3431 212.199 56.8094 211.286C56.6304 211.036 56.5015 210.754 56.4299 210.456C56.0504 208.712 58.2919 209.021 59.2052 209.448C60.2925 209.929 61.2098 210.727 61.8381 211.737C62.5734 213.1 60.7114 213.943 59.7151 214.358Z" fill="#E0E0E0"/>
<path d="M48.1516 212.982C47.9599 212.987 47.7707 212.938 47.6061 212.84C47.4114 212.687 47.2533 212.492 47.1435 212.27C46.9056 211.729 46.6364 211.203 46.3371 210.693C45.8034 209.91 44.1429 208.475 45.6847 207.823C46.2413 207.605 46.8598 207.605 47.4163 207.823C48.2656 208.197 49.0629 208.679 49.7883 209.258C50.4169 209.697 51.4369 210.883 50.8201 211.701C50.121 212.445 49.1695 212.902 48.1516 212.982Z" fill="#E0E0E0"/>
<path d="M41.1068 220.916C41.0751 221.141 41.1038 221.37 41.1898 221.58C41.3354 222.08 41.5097 222.571 41.7117 223.051C41.8465 223.455 42.0932 223.813 42.4233 224.083C43.8109 225.032 45.8745 223.359 44.8902 221.877C44.3565 221.07 41.4507 219.066 41.1068 220.916Z" fill="#E0E0E0"/>
<path d="M549.616 431.87C553.098 424.07 554.985 415.653 555.169 407.113C555.352 398.574 553.827 390.083 550.684 382.141C547.043 373.199 540.484 365.217 531.708 361.101C529.407 360.01 519.848 356.642 519.931 360.746C519.931 362.382 522.552 364.221 523.489 365.407C524.271 366.415 524.947 369.368 525.54 369.925C517.216 362.184 506.262 357.894 494.894 357.923C491.478 357.923 487.92 358.421 485.121 360.366C482.322 362.311 480.532 366.059 481.765 369.237C482.05 369.961 482.453 370.625 482.666 371.36C483.212 373.294 482.121 374.124 481.279 375.582C480.536 376.747 480.149 378.103 480.164 379.484C480.223 382.889 481.033 386.238 482.536 389.293C485.476 395.695 489.765 401.387 495.108 405.98C491.123 411.85 494.301 419.251 498.274 424.197C500.855 427.114 503.233 430.205 505.39 433.447C507.395 436.792 508.675 440.753 507.964 444.584C506.778 451.332 501.322 453.36 496.021 456.254C490.719 459.148 494.455 463.074 499.045 463.038C506.801 462.947 514.463 461.32 521.587 458.253C528.712 455.185 535.158 450.737 540.555 445.165C544.285 441.261 547.347 436.769 549.616 431.87Z" fill="#F0997A"/>
<path d="M485.667 395.033C486.343 395.033 487.019 395.033 487.695 395.033C486.9 392.103 486.272 388.759 487.897 386.185C490.162 382.627 495.392 382.627 499.448 383.813C503.754 385.082 508.379 388.154 508.272 392.637C508.853 390.265 511.937 389.079 514.321 389.838C516.705 390.597 518.412 392.637 519.729 394.76C522.135 398.717 523.608 403.171 524.035 407.782C524.463 412.394 523.834 417.042 522.196 421.374C524.639 421.149 527.379 421.006 529.229 422.56C531.601 424.635 531.269 428.49 530.32 431.479C528.529 437.243 524.817 443.018 518.994 444.584C520.5 444.584 521.484 446.41 521.176 447.881C520.733 449.354 519.773 450.618 518.472 451.439C513.052 455.507 506.778 456.29 500.219 456.064C498.89 456.026 497.559 456.066 496.234 456.183C501.465 453.349 506.766 451.297 507.988 444.62C508.699 440.789 507.418 436.828 505.414 433.483C503.256 430.24 500.879 427.149 498.298 424.232C494.325 419.287 491.182 411.886 495.131 406.015C491.449 402.844 488.259 399.143 485.667 395.033Z" fill="#FFBDA7"/>
<path d="M358.291 365.169C356.365 366.233 354.54 367.468 352.835 368.858C350.001 371.239 347.478 373.969 345.328 376.982C335.97 389.803 332.388 407.545 339.089 421.931C346.205 437.136 363.77 445.889 380.516 444.952C373.187 448.296 364.292 445.711 356.583 448.106C352.681 449.292 349.751 453.538 349.004 457.594C348.257 461.65 349.479 465.73 354.555 465.73C354.614 467.699 358.291 471.293 364.897 469.478C365.241 470.925 366.083 473.546 377.101 471.696C388.119 469.846 420.413 456.752 433.554 449.281C438.762 446.521 443.641 443.179 448.095 439.318C456.147 432.344 461.473 422.192 463.904 411.696C466.964 398.425 465.896 384.56 464.07 371.064C461.117 349.336 455.934 323.873 431.253 317.99C428.433 317.216 425.475 317.082 422.596 317.599C418.029 318.595 414.294 321.987 411.732 325.901C405.885 334.926 405.648 346.395 406.276 357.128C406.786 365.928 400.263 361.6 394.665 360.686C388.913 359.675 383.059 359.361 377.231 359.749C370.605 360.194 364.149 362.041 358.291 365.169Z" fill="#F0997A"/>
<path opacity="0.2" d="M358.291 365.169C356.365 366.233 354.54 367.468 352.835 368.858C350.001 371.239 347.478 373.969 345.328 376.982C335.97 389.803 332.388 407.545 339.089 421.931C346.205 437.136 363.77 445.889 380.516 444.952C373.187 448.296 364.292 445.711 356.583 448.106C352.681 449.292 349.751 453.538 349.004 457.594C348.257 461.65 349.479 465.73 354.555 465.73C354.614 467.699 358.291 471.293 364.897 469.478C365.241 470.925 366.083 473.546 377.101 471.696C388.119 469.846 420.413 456.752 433.554 449.281C438.762 446.521 443.641 443.179 448.095 439.318C456.147 432.344 461.473 422.192 463.904 411.696C466.964 398.425 465.896 384.56 464.07 371.064C461.117 349.336 455.934 323.873 431.253 317.99C428.433 317.216 425.475 317.082 422.596 317.599C418.029 318.595 414.294 321.987 411.732 325.901C405.885 334.926 405.648 346.395 406.276 357.128C406.786 365.928 400.263 361.6 394.665 360.686C388.913 359.675 383.059 359.361 377.231 359.749C370.605 360.194 364.149 362.041 358.291 365.169Z" fill="black"/>
<path opacity="0.2" d="M354.555 465.73C353.772 461.069 354.068 455.483 358.48 453.562C362.892 451.641 370.981 452.091 370.981 452.091C370.981 452.091 360.248 450.478 356.274 452.981C352.301 455.483 353.274 462.149 354.555 465.73Z" fill="black"/>
<path opacity="0.2" d="M364.897 469.454C364.126 464.793 364.41 459.207 368.822 457.286C373.234 455.365 381.335 455.815 381.335 455.815C381.335 455.815 370.589 454.202 366.616 456.705C362.643 459.207 363.616 465.873 364.897 469.454Z" fill="black"/>
<path d="M388.403 431.336C390.621 431.574 393.147 430.482 393.823 428.383C391.902 433.21 395.009 438.962 399.528 441.429C404.046 443.896 409.633 443.872 414.768 443.018C433.092 439.97 449.779 426.616 455.092 408.802C457.915 399.314 457.547 389.115 455.578 379.425C452.608 364.994 446.304 351.457 437.171 339.896C430.15 330.989 421.054 323.102 410.024 320.469C398.994 317.836 385.901 321.738 380.374 331.653C378.591 335.118 377.457 338.881 377.029 342.754C375.001 356.832 377.741 371.088 376.021 385.189C374.93 394.167 372.701 403.359 374.432 412.396C375.843 419.666 379.52 430.388 388.403 431.336Z" fill="#F5F5F5"/>
<path d="M437.812 391.771C432.7 389.316 426.77 389.103 421.208 389.945C417.128 390.562 412.823 391.914 410.392 395.246C409.858 392.519 405.932 391.688 403.596 393.242C401.259 394.796 400.156 397.571 399.219 400.192C398.567 396.266 397.523 391.771 393.977 389.969C390.431 388.166 385.474 390.621 383.007 393.432C381.09 395.783 379.699 398.516 378.927 401.449C378.322 400.18 376.496 400.192 375.144 400.631C374.752 400.749 374.373 400.927 373.958 401.081C373.623 404.838 373.783 408.622 374.432 412.337C375.843 419.666 379.556 430.388 388.403 431.313C390.621 431.55 393.147 430.459 393.823 428.359C391.902 433.186 395.009 438.939 399.528 441.405C404.046 443.872 409.633 443.849 414.768 442.995C420.09 442.097 425.239 440.376 430.032 437.895C435.997 431.296 440.881 423.795 444.501 415.669C446.078 412.23 447.537 408.553 447.335 404.794C447.039 399.208 442.924 394.215 437.812 391.771Z" fill="#E0E0E0"/>
<path d="M333.385 282.778C333.029 283.407 332.673 284.047 332.329 284.687C326.648 295.219 322.983 307.708 326.802 319.497C330.799 331.831 341.971 342.09 352.491 349.064C358.219 352.859 375.025 362.11 380.172 352.705C381.548 350.155 381.465 347.107 381.548 344.213C381.655 340.524 382.165 336.646 384.383 333.693C386.6 330.74 391.001 329.151 394.12 331.119C396.634 332.685 397.535 335.863 397.82 338.84C398.045 341.094 397.654 344.711 398.745 346.751C399.836 348.791 403.418 348.969 405.493 349.49C410.617 350.771 415.468 354.484 416.606 359.655C417.413 363.331 413.131 371.218 417.496 373.4C418.388 373.789 419.346 374.002 420.318 374.029C426.082 374.456 432.178 373.234 437.421 375.689C437.71 375.785 437.976 375.94 438.203 376.144C438.43 376.348 438.611 376.597 438.737 376.875C438.786 377.21 438.732 377.552 438.581 377.855C438.431 378.158 438.191 378.408 437.895 378.571C437.291 378.882 436.636 379.083 435.962 379.164C434.589 379.459 433.261 379.934 432.012 380.576C427.162 383.078 434.444 383.968 435.689 384.489C437.268 385.273 438.709 386.306 439.959 387.549C441.569 388.801 442.869 390.406 443.76 392.24C444.65 394.075 445.107 396.089 445.094 398.128C428.087 390.953 411.886 402.671 402.611 416.25C397.448 423.685 394.975 432.66 395.602 441.69C396.031 448.833 398.501 455.703 402.718 461.484C407.688 468.672 421.433 477.009 429.415 476.784C425.678 477.938 421.86 478.814 417.994 479.405C406.063 481.433 402.315 480.176 396.349 482.026C392.447 483.212 389.518 487.458 388.771 491.514C388.024 495.57 389.245 499.65 394.321 499.65C394.321 501.619 398.057 505.212 404.663 503.398C405.007 504.845 405.849 507.466 416.867 505.616C427.885 503.765 460.18 490.672 473.321 483.2C478.522 480.432 483.392 477.081 487.837 473.214C495.89 466.24 501.227 456.088 503.647 445.592C506.707 432.321 505.639 418.456 503.813 404.96C496.163 348.648 470.308 327.241 458.745 315.547C449.708 306.415 434.266 296.346 419.832 287.32C409.68 280.975 401.935 274.986 394.381 265.427C391.107 261.276 388.451 256.674 385.094 252.571C382.129 248.918 378.263 244.624 373.234 244.589C367.874 244.529 362.821 248.289 359.002 251.61C348.716 260.431 340.047 270.978 333.385 282.778Z" fill="#F0997A"/>
<path d="M487.837 473.214C508.474 455.721 507.999 425.774 503.884 401.283C501.215 383.185 495.819 365.193 486.77 349.23C479.559 336.373 469.549 325.51 458.745 315.547C468.992 325.723 479.002 337.002 485.845 349.751C494.562 365.739 499.828 383.564 502.579 401.508C506.707 425.869 507.608 455.187 487.837 473.214Z" fill="#B16668"/>
<path opacity="0.2" d="M394.298 499.686C393.527 495.025 393.823 489.438 398.235 487.517C402.647 485.596 410.736 486.047 410.736 486.047C410.736 486.047 399.99 484.434 396.029 486.936C392.068 489.438 393.017 496.104 394.298 499.686Z" fill="black"/>
<path opacity="0.2" d="M404.651 503.41C403.869 498.749 404.165 493.163 408.577 491.241C412.989 489.32 421.03 489.818 421.03 489.818C421.03 489.818 410.285 488.205 406.324 490.708C402.362 493.21 403.37 499.828 404.651 503.41Z" fill="black"/>
<path d="M286.182 351.317C287.901 381.465 297.923 403.845 301.09 419.832C303.545 432.226 305.087 435.819 305.182 441.512C305.5 447.867 304.499 454.219 302.24 460.168C300.147 465.736 296.718 470.705 292.254 474.637C283.632 481.528 278.9 482.358 279.018 487.849C279.196 488.739 280.015 492.89 283.917 492.736C285.186 496.637 290.463 495.95 290.463 495.95C290.463 495.95 292.835 502.39 307.637 495.95C313.567 493.412 316.259 490.47 318.821 479.678C320.007 474.53 321.359 466.821 324.584 456.124C327.372 446.873 327.621 442.271 327.621 442.271C327.621 442.271 329.993 441.797 331.013 445.462C332.199 443.09 331.89 438.512 330.847 435.713C329.803 432.914 328.32 424.671 329.328 416.488C330.596 406.653 332.393 396.894 334.713 387.253C334.559 387.834 343.359 388.225 343.964 388.273C348.074 388.391 352.131 389.243 355.942 390.787C361.184 393.1 365.324 397.274 369.569 401.117C371.257 402.738 373.114 404.173 375.108 405.399C377.804 406.783 380.689 407.762 383.671 408.304C386.209 408.909 388.154 409.49 390.55 407.83C391.72 406.943 392.713 405.845 393.479 404.592C398.982 396.29 400.595 385.972 400.595 376.021C400.652 369.264 400.096 362.516 398.935 355.859C398.484 353.298 397.95 350.748 397.322 348.233C396.693 345.719 395.614 343.24 395.175 340.726C394.547 337.168 394.392 333.42 393.764 329.803C392.351 321.982 390.433 314.261 388.024 306.688C383.469 292.242 377.504 277.904 369.202 265.178C364.754 258.358 357.033 246.913 347.569 247.388C331.653 248.42 302.904 251.527 299.429 279.161C296.678 301.351 284.106 315.108 286.182 351.317Z" fill="#F0997A"/>
<path d="M363.758 356.061C364.607 355.776 365.515 355.719 366.393 355.893C367.271 356.068 368.088 356.469 368.763 357.057C369.246 355.79 369.896 354.594 370.696 353.499C371.703 351.987 373.084 350.762 374.705 349.941C375.407 349.645 376.161 349.492 376.923 349.492C377.684 349.492 378.439 349.645 379.14 349.941C380.587 350.522 382.343 351.898 382.355 353.618C382.355 353.902 381.868 354.412 381.619 354.068C380.89 352.879 379.79 351.962 378.488 351.459C377.899 351.267 377.275 351.206 376.66 351.282C376.045 351.358 375.455 351.568 374.93 351.898C372.466 353.661 370.716 356.249 369.996 359.192C369.783 359.963 368.609 359.785 368.324 359.192C367.869 358.415 367.157 357.82 366.31 357.511C365.464 357.201 364.537 357.196 363.687 357.496C362.798 357.842 362.002 358.388 361.358 359.091C360.714 359.795 360.241 360.637 359.975 361.552C359.904 361.742 359.678 361.683 359.702 361.481C359.826 360.296 360.269 359.166 360.983 358.212C361.697 357.258 362.656 356.514 363.758 356.061Z" fill="#B16668"/>
<path d="M292.254 474.649C296.718 470.717 300.147 465.748 302.24 460.18C304.501 454.228 305.502 447.871 305.182 441.512C305.087 435.819 303.545 432.226 301.09 419.832C299.904 413.736 297.674 406.715 295.314 398.686C296.569 398.923 297.867 398.748 299.014 398.188C299.501 402.267 303.569 405.932 307.554 404.936C311.538 403.94 312.558 398.164 309.416 395.721C320.007 402.279 318.18 391.558 317.635 384.821C317.184 379.33 316.911 370.993 320.457 366.296C324.442 361.018 329.815 362.679 334.049 367.15C339.433 372.819 340.038 380.836 339.73 388.403C337.856 388.035 336.172 387.668 334.713 387.312C332.396 396.954 330.598 406.713 329.328 416.547C328.32 424.73 329.803 432.973 330.847 435.772C331.89 438.571 332.139 443.113 331.013 445.521C329.993 441.856 327.621 442.331 327.621 442.331C327.621 442.331 327.372 446.932 324.584 456.183C321.359 466.857 320.042 474.59 318.821 479.737C316.259 490.53 313.519 493.471 307.637 496.009C292.859 502.401 290.463 496.009 290.463 496.009C290.463 496.009 285.186 496.697 283.917 492.795C280.015 492.949 279.173 488.798 279.018 487.909C278.9 482.37 283.632 481.516 292.254 474.649Z" fill="#F0F0F0"/>
<path opacity="0.2" d="M290.238 489.035C291.697 488.039 298.255 485.88 298.255 485.88C298.255 485.88 294.875 487.754 291.946 489.166C289.016 490.577 289.692 493.91 290.463 495.961C288.305 492.866 288.779 490.02 290.238 489.035ZM283.691 485.821C285.15 484.825 291.756 482.702 291.756 482.702C291.756 482.702 288.376 484.576 285.446 485.999C282.517 487.422 283.205 490.743 283.964 492.783C281.758 489.652 282.268 486.817 283.691 485.821Z" fill="black"/>
<path d="M325.083 298.338C326.308 301.431 327.901 304.366 329.827 307.079C333.385 311.977 338.069 315.855 342.125 320.315C346.182 324.774 349.68 330.218 349.823 336.243C349.823 335.851 344.414 334.025 343.833 333.871C344.758 336.243 346.739 338.212 347.664 340.75C348.696 343.575 349.132 346.583 348.945 349.585C347.157 347.039 344.884 344.871 342.256 343.205C343.288 343.857 343.81 347.949 344.047 349.135C344.475 351.255 344.698 353.412 344.711 355.575C344.711 359.133 344.64 362.608 344.711 366.166C344.96 374.266 345.743 382.248 348.269 389.992C348.269 389.992 339.623 388.486 338.152 388.19C331.44 386.885 325.735 383.849 320.92 381.382C311.598 376.638 306.391 372.534 300.485 363.9C284.035 339.825 293.369 306.201 313.436 287.356C314.386 286.339 315.537 285.532 316.816 284.984C317.46 284.725 318.163 284.649 318.847 284.765C319.531 284.88 320.171 285.181 320.694 285.636C321.33 286.435 321.739 287.389 321.88 288.4C322.716 291.783 323.786 295.104 325.083 298.338Z" fill="#FAFAFA"/>
<path d="M276.67 301.612C275.128 305.656 276.255 310.507 277.536 314.788C279.782 322.897 282.908 330.735 286.858 338.164C290.832 345.613 296.554 351.986 303.533 356.737C304.885 357.603 306.64 358.397 308.016 357.579C308.518 357.173 308.927 356.664 309.218 356.088C309.508 355.511 309.673 354.879 309.7 354.234C310.471 349.965 311.135 345.589 313.258 341.793C315.464 337.785 319.07 334.784 322.509 331.76C330.206 325 337.192 317.599 344.569 310.554C351.927 303.502 358.478 295.654 364.102 287.154C368.846 280.038 373.756 270.894 372.001 262.059C363.592 264.253 355.456 268.107 347 270.444C338.288 272.848 329.441 274.729 320.505 276.077C312.115 277.371 303.656 278.163 295.172 278.449C290.878 278.58 283.015 277.607 280.05 281.639C277.085 285.672 280.631 288.245 281.616 291.756C282.458 294.768 279.244 297.2 277.571 299.833C277.209 300.392 276.907 300.989 276.67 301.612Z" fill="#92E3A9"/>
<path opacity="0.3" d="M276.67 301.612C275.128 305.656 276.255 310.507 277.536 314.788C279.782 322.897 282.908 330.735 286.858 338.164C290.832 345.613 296.554 351.986 303.533 356.737C304.885 357.603 306.64 358.397 308.016 357.579C308.518 357.173 308.927 356.664 309.218 356.088C309.508 355.511 309.673 354.879 309.7 354.234C310.471 349.965 311.135 345.589 313.258 341.793C315.464 337.785 319.07 334.784 322.509 331.76C330.206 325 337.192 317.599 344.569 310.554C351.927 303.502 358.478 295.654 364.102 287.154C368.846 280.038 373.756 270.894 372.001 262.059C363.592 264.253 355.456 268.107 347 270.444C338.288 272.848 329.441 274.729 320.505 276.077C312.115 277.371 303.656 278.163 295.172 278.449C290.878 278.58 283.015 277.607 280.05 281.639C277.085 285.672 280.631 288.245 281.616 291.756C282.458 294.768 279.244 297.2 277.571 299.833C277.209 300.392 276.907 300.989 276.67 301.612Z" fill="white"/>
<path opacity="0.3" d="M297.223 308.597C299.3 309.936 301.704 310.678 304.173 310.744C306.955 310.673 309.71 310.181 312.345 309.285C316.804 307.98 321.185 306.486 325.486 304.802C326.589 304.256 327.814 304.003 329.044 304.067C329.644 304.109 330.205 304.377 330.615 304.817C331.024 305.258 331.251 305.837 331.25 306.439C331.084 307.53 330.064 308.23 329.423 309.083C328.689 310.12 327.82 311.053 326.838 311.859C324.3 314.009 321.77 316.164 319.247 318.322L310.175 326.055C308.621 327.372 307.02 328.641 305.525 330.016C304.031 331.392 303.153 332.317 301.161 331.926C299.345 331.45 297.723 330.417 296.524 328.973C293.026 325.055 290.254 320.545 288.34 315.654C287.243 313.403 286.388 311.041 285.79 308.609C285.304 306.083 284.047 303.865 283.881 301.185C283.75 299.24 285.067 297.425 287 299.216C290.214 302.311 293.345 306.213 297.223 308.597Z" fill="#92E3A9"/>
<path opacity="0.3" d="M308.123 305.632C306.142 305.703 303.972 305.858 302.193 304.897C301.244 304.387 298.872 302.928 300.58 301.896C301.647 301.256 303.355 301.588 304.541 301.517C306.047 301.422 307.554 301.232 309.036 300.995C312.013 300.521 314.966 299.809 317.919 299.263C318.88 299.062 320.208 299.121 320.457 300.07C320.482 300.395 320.422 300.722 320.282 301.017C320.143 301.312 319.929 301.566 319.663 301.754C316.591 304.565 312.25 305.478 308.123 305.632Z" fill="#92E3A9"/>
<path d="M307.625 177.129C308.811 176.145 310.803 175.801 311.183 174.283C311.242 173.917 311.242 173.545 311.183 173.18C311.013 170.985 310.471 168.836 309.582 166.823C308.746 164.932 307.687 163.148 306.427 161.509C303.753 158.179 300.632 155.234 297.152 152.757C293.428 149.946 289.265 147.313 284.604 147.005C284.087 146.92 283.557 146.95 283.053 147.093C282.548 147.237 282.082 147.49 281.687 147.835C280.845 148.76 281.058 150.207 281.319 151.393C282.173 155.366 283.264 159.149 284.308 163.087C285.672 168.222 284.948 173.453 285.565 178.695C285.638 180.031 286.046 181.328 286.751 182.466C287.589 183.524 288.719 184.311 290.001 184.731C293.139 185.88 296.6 185.765 299.655 184.411C300.115 184.254 300.566 184.072 301.007 183.866C302.383 183.261 303.634 182.405 304.695 181.339C305.929 180.106 306.237 178.256 307.625 177.129Z" fill="#F0997A"/>
<path d="M303.45 175.196C302.821 176.821 301.149 177.758 299.584 178.517C296.785 179.868 293.91 181.057 290.973 182.075C290.798 182.151 290.607 182.188 290.416 182.181C290.235 182.148 290.069 182.061 289.938 181.932C289.807 181.803 289.717 181.638 289.681 181.458C289.609 181.098 289.609 180.727 289.681 180.367C290.583 173.131 289.628 165.784 286.905 159.019C286.173 157.409 285.547 155.753 285.031 154.061C284.557 152.247 285.47 150.669 287.403 151.393C289.542 152.314 291.468 153.667 293.061 155.366C296.456 158.646 299.375 162.387 301.73 166.479C303.225 169.124 304.6 172.207 303.45 175.196Z" fill="#FFBDA7"/>
<path d="M296.868 171.484C296.543 168.936 295.738 166.473 294.496 164.225C294.164 163.597 293.82 162.98 293.452 162.363C292.958 161.658 292.51 160.921 292.112 160.157C292.029 159.98 292.171 159.541 292.432 159.695C293.916 160.841 295.131 162.298 295.99 163.965C297.014 165.692 297.763 167.569 298.208 169.527C298.626 171.415 298.714 173.361 298.469 175.279C298.22 177.177 297.745 179.454 296.18 180.687C295.99 180.841 295.421 180.995 295.421 180.557C295.421 178.979 296.358 177.497 296.607 175.931C295.53 175.818 294.539 175.291 293.843 174.461C293.412 173.93 293.093 173.316 292.906 172.658C292.827 172.409 292.763 172.156 292.717 171.899C292.641 171.469 292.662 171.027 292.776 170.606C292.776 170.476 292.978 170.298 293.108 170.416C293.555 170.92 293.894 171.509 294.104 172.148C294.352 172.658 294.667 173.133 295.041 173.559L295.112 173.63L295.243 173.749C295.353 173.854 295.472 173.949 295.599 174.034H295.67L295.824 174.129L295.99 174.223H296.109L296.441 174.342C296.441 174.342 296.678 174.342 296.5 174.342H296.666H296.797C296.903 173.393 296.927 172.437 296.868 171.484Z" fill="#F0997A"/>
<path d="M260.363 236.666L257.647 236.382C258.37 231.946 261.359 228.281 264.004 224.64C266.147 221.716 268.127 218.675 269.934 215.532C271.437 212.629 272.584 209.554 273.349 206.376L273.634 205.522C273.898 203.053 274.58 200.647 275.65 198.406C278.247 193.662 281.948 187.601 288.34 182.822C294.733 178.042 298.919 173.334 315.749 174.662C329.708 175.741 343.43 177.544 356.464 190.199C361.067 194.456 364.895 199.48 367.779 205.048C368.965 207.503 370.613 209.792 371.42 212.436C372.226 215.081 372.511 217.987 373.91 220.454C376.543 225.079 382.722 227.238 384.311 232.314C384.382 232.479 384.418 232.656 384.418 232.836C384.418 233.015 384.382 233.192 384.311 233.357C384.05 233.772 383.457 233.784 382.959 233.761L377.397 233.405C378.288 234.307 379.007 235.364 379.52 236.524C379.763 237.106 379.848 237.742 379.764 238.367C379.681 238.992 379.433 239.584 379.046 240.082C377.99 241.268 376.211 241.209 374.657 241.102C376.187 241.209 374.657 254.148 374.396 255.512C373.564 259.047 372.036 262.382 369.902 265.32C368.196 267.95 366.105 270.309 363.699 272.317C357.637 276.59 351.151 280.227 344.343 283.169C326.707 291.08 301.03 288.245 296.666 286.253C297.164 280.323 299.785 271.748 292.622 269.459C289.87 268.582 287.071 269.198 284.32 268.641C281.931 268.031 279.705 266.905 277.797 265.344C276.86 264.608 273.836 260.197 272.946 260.042C272.946 260.042 266.862 259.058 264.976 251.219C264.774 250.365 264.561 249.534 264.348 248.728C263.87 248.372 263.304 248.154 262.711 248.099C261.311 248.004 260.019 248.894 258.619 248.977C258.17 245.774 258.541 242.509 259.698 239.489C260.138 238.613 260.365 237.646 260.363 236.666Z" fill="#F0997A"/>
<path d="M259.734 239.572C260.192 238.668 260.424 237.667 260.41 236.654L257.694 236.37C258.418 231.934 261.406 228.269 264.051 224.628C265.083 223.229 266.067 221.782 267.028 220.323C270.882 221.213 275.033 223.098 280.75 219.291C284.154 217.014 285.636 211.926 286.502 208.131C287.107 205.498 287.178 202.782 287.89 200.161C288.672 197.244 291.127 193.211 294.78 194.445C296.168 194.919 297.152 196.188 298.338 196.947C300.521 198.264 303.284 197.92 305.786 197.457C308.289 196.995 311.005 196.508 313.294 197.635C314.259 198.121 315.073 198.862 315.648 199.778C316.223 200.694 316.537 201.749 316.555 202.83C316.429 204.909 315.592 206.881 314.183 208.416C312.879 210.017 311.325 211.416 310.139 213.16C307.577 216.777 306.7 222.755 310.044 226.206C311.733 227.927 314.015 228.941 316.425 229.04C317.625 229.087 318.814 228.8 319.861 228.212C320.907 227.623 321.771 226.757 322.355 225.708C323.138 224.273 323.458 222.458 324.822 221.569C327.016 220.145 329.755 222.185 331.606 224.047C339.602 232.071 348.52 239.121 358.172 245.051C360.354 246.391 362.821 248.087 362.916 250.637C362.987 252.499 361.73 254.112 360.414 255.381C356.84 258.963 352.49 261.674 347.7 263.304C349.537 263.558 351.286 264.249 352.799 265.32C361.22 272.377 339.196 275.626 335.721 275.069C336.136 276.504 334.891 277.832 333.752 278.805C330.847 281.295 327.039 283.703 324.81 286.834C324.535 287.213 324.286 287.609 324.063 288.02C311.278 289.206 299.453 287.546 296.619 286.253C291.483 284.379 287.795 282.149 286.727 278.52C285.458 274.251 297.306 270.977 292.574 269.459C289.823 268.582 287.024 269.198 284.272 268.641C281.884 268.031 279.657 266.905 277.749 265.344C276.812 264.608 273.788 260.197 272.899 260.042C272.899 260.042 266.814 259.058 264.929 251.219C264.727 250.365 264.514 249.534 264.3 248.728C263.823 248.372 263.256 248.154 262.663 248.099C261.264 248.004 259.971 248.894 258.572 248.977C258.163 245.794 258.563 242.56 259.734 239.572Z" fill="#FAFAFA"/>
<path d="M257.647 236.382C258.37 231.946 261.359 228.281 264.004 224.64C265.035 223.241 266.02 221.794 266.98 220.335C270.835 221.225 274.986 223.11 280.702 219.303C281.541 218.724 282.275 218.006 282.873 217.18C282.421 219.223 281.449 221.115 280.05 222.671C277.844 225.245 275.306 227.534 273.195 230.179C269.576 234.75 267.323 240.251 266.696 246.048L268.902 246.759C268.336 247.246 267.877 247.843 267.55 248.514C267.224 249.185 267.038 249.916 267.004 250.661C267.087 252.155 268.665 253.567 270.04 253.033C269.649 254.219 269.293 255.761 270.111 256.769C270.503 257.243 271.096 257.528 271.464 258.026C271.63 258.288 271.735 258.584 271.772 258.891C271.809 259.199 271.777 259.512 271.677 259.805C269.791 259.058 266.304 256.959 264.964 251.361C264.763 250.507 264.549 249.677 264.336 248.87C263.858 248.514 263.292 248.297 262.699 248.242C261.3 248.147 260.007 249.036 258.607 249.119C258.158 245.916 258.53 242.652 259.687 239.631C260.145 238.728 260.377 237.727 260.363 236.714L257.647 236.382Z" fill="#E0E0E0"/>
<path d="M300.295 249.748C300.23 249.881 300.206 250.03 300.226 250.177C300.246 250.323 300.308 250.461 300.406 250.571C300.504 250.682 300.633 250.762 300.776 250.799C300.919 250.837 301.07 250.831 301.21 250.783C301.35 250.735 301.472 250.646 301.562 250.528C301.651 250.41 301.703 250.268 301.712 250.121C301.721 249.973 301.685 249.826 301.611 249.698C301.536 249.571 301.425 249.468 301.291 249.404C301.114 249.318 300.909 249.306 300.722 249.37C300.536 249.435 300.382 249.571 300.295 249.748Z" fill="#37474F"/>
<path d="M293.701 248.586C293.659 248.673 293.634 248.767 293.628 248.864C293.623 248.961 293.636 249.058 293.668 249.149C293.7 249.241 293.75 249.325 293.815 249.397C293.879 249.469 293.958 249.528 294.045 249.57C294.134 249.625 294.234 249.661 294.338 249.676C294.442 249.69 294.548 249.682 294.649 249.652C294.75 249.623 294.843 249.572 294.923 249.504C295.003 249.436 295.068 249.352 295.113 249.257C295.159 249.163 295.183 249.059 295.186 248.954C295.189 248.849 295.169 248.745 295.129 248.648C295.089 248.551 295.028 248.464 294.952 248.392C294.875 248.32 294.785 248.264 294.685 248.23C294.598 248.188 294.502 248.164 294.405 248.159C294.308 248.154 294.21 248.169 294.119 248.202C294.027 248.235 293.943 248.286 293.871 248.352C293.8 248.418 293.742 248.497 293.701 248.586Z" fill="#37474F"/>
<path d="M295.314 254.361C295.253 254.535 295.259 254.725 295.33 254.895C295.4 255.065 295.531 255.203 295.697 255.282C295.863 255.361 296.053 255.376 296.229 255.325C296.406 255.273 296.557 255.158 296.654 255.002C296.71 254.913 296.746 254.813 296.76 254.709C296.774 254.605 296.766 254.499 296.737 254.398C296.707 254.297 296.657 254.204 296.589 254.124C296.521 254.044 296.436 253.979 296.342 253.934C296.247 253.888 296.144 253.863 296.039 253.861C295.934 253.858 295.829 253.878 295.732 253.918C295.635 253.958 295.548 254.019 295.476 254.095C295.404 254.171 295.349 254.262 295.314 254.361Z" fill="#37474F"/>
<path d="M283.134 256.271C282.448 255.671 281.687 255.165 280.869 254.765C280.144 254.345 279.454 253.869 278.805 253.341C278.622 253.193 278.399 253.102 278.164 253.081C277.845 253.098 277.543 253.229 277.311 253.448C275.817 254.636 274.517 256.048 273.456 257.635C273.431 257.657 273.412 257.684 273.399 257.715C273.387 257.746 273.382 257.78 273.385 257.813C273.41 257.86 273.447 257.901 273.492 257.931C274.947 258.976 276.63 259.659 278.402 259.923C280.174 260.187 281.983 260.024 283.679 259.449C284.367 259.2 285.624 258.761 284.996 257.955C284.439 257.327 283.814 256.762 283.134 256.271Z" fill="black"/>
<path d="M288.981 232.195C289.939 233.132 290.67 234.276 291.116 235.54C291.435 236.451 291.568 237.417 291.507 238.381C291.446 239.344 291.192 240.286 290.76 241.149C289.669 243.272 287.688 244.126 285.506 244.707C285.441 244.731 285.369 244.731 285.304 244.707C285.234 244.674 285.178 244.614 285.15 244.541C285.009 244.259 284.93 243.95 284.92 243.635C284.91 243.319 284.968 243.006 285.091 242.715C285.364 242.307 285.561 241.853 285.672 241.375C285.678 241.107 285.586 240.846 285.413 240.641C285.241 240.436 285 240.3 284.735 240.26C282.707 240.035 283.015 242.632 283.039 243.818C283.107 244.133 283.06 244.462 282.908 244.747C282.756 245.031 282.508 245.253 282.209 245.372C281.023 246.095 279.837 246.83 278.591 247.578C278.279 247.795 277.923 247.94 277.548 248.004C277.217 248.017 276.888 247.952 276.587 247.815C275.46 247.456 274.447 246.809 273.648 245.937C272.849 245.065 272.292 243.999 272.033 242.845C271.867 241.944 271.962 241.007 271.796 240.106C271.783 239.976 271.743 239.85 271.68 239.736C271.617 239.622 271.531 239.521 271.428 239.442C270.918 239.145 270.171 239.643 269.957 240.094C269.744 240.545 269.957 242.074 269.317 241.28C268.859 240.398 268.604 239.426 268.57 238.433C268.095 234.875 269.447 230.535 273.219 229.432C274.642 229.064 276.117 228.932 277.583 229.04C279.625 229.113 281.656 229.359 283.656 229.776C284.915 229.982 286.136 230.382 287.273 230.962C287.898 231.29 288.473 231.705 288.981 232.195Z" fill="#263238"/>
<path d="M273.195 255.868C274.115 255.279 274.995 254.629 275.828 253.923C276.423 253.082 276.772 252.092 276.836 251.064C276.955 250.009 276.931 248.953 277.002 247.898C276.988 247.763 277.011 247.627 277.067 247.504C277.123 247.381 277.211 247.275 277.322 247.198C277.454 247.163 277.595 247.179 277.715 247.243C277.836 247.307 277.929 247.413 277.975 247.542C278.057 247.806 278.082 248.086 278.046 248.36C277.991 249.555 278.279 250.74 278.876 251.776C279.515 252.627 280.371 253.291 281.355 253.697C285.743 256.152 288.744 260.185 293.998 261.122C296.586 261.487 299.226 261.126 301.622 260.079C304.017 259.032 306.075 257.34 307.565 255.192C308.621 253.697 309.487 252.084 310.495 250.566C310.59 250.412 310.768 250.234 310.934 250.317C311.1 250.4 311.064 250.542 311.064 250.685C310.981 252.76 309.582 254.682 308.538 256.389C307.18 258.85 305.114 260.846 302.608 262.118C299.133 263.743 295.065 264.751 291.471 263.399C289.292 262.375 287.29 261.01 285.541 259.354C284.284 258.335 282.968 257.374 281.628 256.473C280.411 255.871 279.265 255.135 278.212 254.278C278.087 254.149 277.972 254.01 277.868 253.863C277.248 254.904 276.406 255.796 275.401 256.473C274.645 257.003 274.003 257.681 273.515 258.465C273.239 258.973 273.032 259.515 272.899 260.078C272.158 259.952 271.451 259.673 270.823 259.26C271.324 257.952 272.139 256.787 273.195 255.868Z" fill="#263238"/>
<path d="M324.229 195.998C327.194 197.611 330.408 200.185 331.629 203.423C331.985 204.383 332.59 206.103 331.38 206.696C330.171 207.289 328.19 205.842 327.206 205.107C325.121 203.748 322.967 202.497 320.754 201.359C319.763 200.859 318.868 200.188 318.109 199.378C315.085 195.749 320.481 194.172 323.209 195.477C323.553 195.69 323.897 195.809 324.229 195.998Z" fill="#FAFAFA"/>
<path d="M283.252 190.056C279.979 190.863 276.208 192.523 274.203 195.346C273.61 196.176 272.578 197.718 273.598 198.572C274.618 199.426 276.895 198.572 278.034 198.109C280.398 197.329 282.801 196.672 285.233 196.141C286.317 195.924 287.356 195.523 288.305 194.955C292.159 192.227 287.356 189.321 284.379 189.867L283.252 190.056Z" fill="#FAFAFA"/>
<path d="M312.392 217.619C313.48 216.235 314.993 215.247 316.698 214.808C318.444 214.439 320.259 214.562 321.94 215.164C323.134 215.552 324.203 216.252 325.035 217.192C325.711 217.951 326.731 219.493 326.553 220.584C326.245 222.446 322.841 219.932 322.07 219.552C320.755 218.921 319.319 218.581 317.86 218.556C316.386 218.667 314.925 218.913 313.495 219.291C312.108 219.54 311.586 218.77 312.392 217.619Z" fill="#263238"/>
<path d="M273.243 213.646C274.193 212.438 275.514 211.576 277.002 211.191C278.531 210.865 280.12 210.972 281.592 211.499C282.638 211.837 283.576 212.447 284.308 213.267C285.093 214.067 285.561 215.124 285.624 216.243C285.363 217.868 282.375 215.662 281.711 215.342C280.559 214.787 279.301 214.488 278.022 214.464C276.731 214.559 275.452 214.778 274.203 215.117C272.994 215.33 272.531 214.666 273.243 213.646Z" fill="#263238"/>
<path d="M330.052 264.478C329.898 266.85 327.289 268.119 324.976 268.416C321.867 268.803 318.714 268.206 315.962 266.708C315.893 267.704 315.518 268.654 314.89 269.43C314.261 270.206 313.409 270.769 312.449 271.044C311.489 271.318 310.468 271.291 309.524 270.965C308.58 270.639 307.76 270.03 307.174 269.222C306.451 270.823 304.517 271.511 302.762 271.594C298.908 271.76 294.994 269.613 291.175 269.127C287.356 268.641 283.573 269.234 280.359 267.146C280.145 267.004 279.73 266.767 279.493 266.625C279.493 266.625 279.173 267.811 279.09 268.012C278.635 269.501 278.357 271.037 278.259 272.59C278.193 273.201 278.254 273.819 278.437 274.405C278.703 274.932 279.096 275.385 279.58 275.722C280.065 276.06 280.626 276.271 281.212 276.338C282.396 276.44 283.587 276.44 284.77 276.338C285.111 276.314 285.451 276.383 285.755 276.54C286.117 276.868 286.363 277.305 286.455 277.785C286.82 278.838 287.416 279.795 288.201 280.586C288.986 281.377 289.938 281.982 290.988 282.355C292.038 282.729 293.158 282.861 294.266 282.744C295.374 282.626 296.442 282.261 297.389 281.675C297.916 281.243 298.553 280.968 299.228 280.88C299.879 280.979 300.484 281.278 300.959 281.734C302.551 282.95 304.382 283.817 306.332 284.276C308.281 284.736 310.306 284.779 312.274 284.403C314.233 283.993 316.056 283.094 317.574 281.789C319.092 280.485 320.255 278.818 320.955 276.943C321.086 276.551 321.252 276.101 321.643 275.982C321.942 275.931 322.25 275.99 322.509 276.148C323.894 276.863 325.433 277.229 326.992 277.216C327.771 277.194 328.527 276.95 329.172 276.513C329.817 276.076 330.324 275.464 330.633 274.749C331.107 273.349 330.538 271.807 330.633 270.337C331.626 270.465 332.635 270.31 333.544 269.891C334.453 269.472 335.225 268.805 335.773 267.967C336.32 267.128 336.62 266.153 336.638 265.152C336.656 264.151 336.392 263.165 335.875 262.308C334.322 259.71 330.337 258.501 327.466 258.821C327.965 260.92 330.194 262.106 330.052 264.478Z" fill="#E0E0E0"/>
<path d="M340.382 177.224C342.458 168.293 352.432 160.252 360.164 156.208C361.809 155.251 363.62 154.616 365.501 154.334C366.223 154.211 366.965 154.301 367.636 154.595C368.352 155.036 368.924 155.674 369.285 156.433C371.027 159.962 372.124 163.774 372.523 167.689C373.627 175.267 374.135 182.92 374.041 190.578C374.169 193.268 373.766 195.956 372.855 198.489C372.254 199.835 371.387 201.046 370.305 202.047C368.965 203.316 367.304 204.229 366.047 205.605C365.085 206.924 363.815 207.987 362.347 208.7C358.136 210.503 353.44 208.973 349.585 206.981C344.735 204.466 337.132 198.56 337.085 192.369C337.085 190.377 339.125 189.44 339.848 187.768C340.951 185.218 340.133 182.407 340.133 179.762C340.124 178.909 340.207 178.058 340.382 177.224Z" fill="#F0997A"/>
<path d="M365.608 196.105C364.078 199.319 361.09 201.146 361.837 205.107C362.24 207.242 363.307 209.199 363.829 211.298C364.351 213.397 364.565 216.279 363.651 218.188C363.577 218.392 363.457 218.576 363.301 218.726C363.145 218.876 362.956 218.988 362.75 219.054C361.908 219.22 361.433 218.117 361.22 217.275C360.4 214.084 358.539 211.259 355.93 209.246C355.772 209.683 355.526 210.084 355.209 210.425C354.892 210.765 354.509 211.038 354.084 211.227C353.659 211.417 353.2 211.518 352.735 211.526C352.27 211.534 351.808 211.449 351.376 211.274C350.526 210.864 349.792 210.247 349.241 209.481C348.69 208.715 348.339 207.822 348.221 206.886C348.008 205.015 348.117 203.122 348.542 201.288C346.435 201.168 344.327 201.503 342.363 202.272C342.146 202.378 341.902 202.416 341.663 202.379C341.535 202.315 341.422 202.224 341.334 202.111C341.246 201.998 341.184 201.867 341.153 201.727C340.875 200.843 340.787 199.911 340.895 198.991C341.004 198.071 341.306 197.184 341.781 196.39C342.749 194.807 344.104 193.497 345.719 192.583C343.572 192.393 341.426 192.286 339.267 192.239C339.354 191.626 339.565 191.038 339.887 190.509C340.209 189.981 340.636 189.524 341.141 189.167C342.15 188.702 343.091 188.104 343.94 187.388C345.007 186.095 344.592 184.21 344.557 182.537C344.45 178.303 347.498 174.081 350.214 171.092C352.861 168.149 355.793 165.476 358.967 163.111C360.544 161.925 363.473 160.051 365.3 161.426C367.34 162.956 366.948 167.001 367.221 169.278C368.067 174.729 368.353 180.253 368.075 185.763C367.86 189.328 367.025 192.827 365.608 196.105Z" fill="#FFBDA7"/>
<path d="M352.242 180.272C352.636 177.67 353.599 175.188 355.065 173.002C355.705 172.06 356.471 171.21 357.342 170.476C358.33 169.529 359.473 168.758 360.722 168.199C360.841 168.199 360.841 168.365 360.781 168.424C359.826 169.318 358.938 170.281 358.125 171.306C357.427 172.279 356.781 173.288 356.191 174.33C355.047 176.445 354.303 178.753 353.997 181.138C353.736 183.047 353.641 185.218 354.982 186.736C355.157 186.959 355.365 187.155 355.598 187.317C355.868 187.527 356.158 187.71 356.464 187.862C357.101 188.189 357.792 188.398 358.504 188.479C358.82 188.503 359.137 188.503 359.453 188.479C359.99 188.357 360.539 188.297 361.09 188.301C361.315 188.301 361.315 188.633 361.22 188.787C360.76 189.307 360.129 189.643 359.441 189.736C358.894 189.867 358.332 189.927 357.769 189.914C356.625 189.951 355.496 189.641 354.531 189.025C354.377 188.93 354.234 188.823 354.092 188.716C354.474 190.909 355.441 192.958 356.891 194.646C357.389 195.227 356.286 195.832 355.788 195.595C353.416 194.267 352.503 191.029 352.112 188.479C351.712 185.754 351.756 182.983 352.242 180.272Z" fill="#F0997A"/>
<path d="M454.629 344.023C454.93 342.468 454.841 340.862 454.368 339.35C452.85 334.049 449.091 329.708 445.189 325.83C443.374 324.015 441.322 322.177 438.784 321.821C438.814 322.189 438.922 322.546 439.099 322.869C439.277 323.192 439.522 323.473 439.816 323.695C442.465 326.373 444.904 329.252 447.11 332.305C448.984 334.903 451.249 337.82 451.332 341.141C451.408 342.023 451.164 342.903 450.644 343.62C450.236 344.036 449.731 344.346 449.174 344.521C447.686 345.074 446.084 345.246 444.513 345.019C443.837 344.913 442.971 344.83 442.675 345.446C442.378 346.063 442.852 346.632 443.208 347.059C443.734 347.655 444.072 348.393 444.177 349.181C444.283 349.969 444.152 350.77 443.801 351.483C443.458 351.95 443.004 352.323 442.48 352.57C441.956 352.816 441.379 352.928 440.801 352.894C439.645 352.813 438.518 352.494 437.492 351.957C437.292 351.818 437.059 351.731 436.816 351.706C436.574 351.681 436.328 351.719 436.104 351.815C435.203 352.408 436.578 354.187 437.136 354.685C438.518 355.663 440.189 356.148 441.88 356.061C442.812 356.039 443.725 355.8 444.549 355.364C445.372 354.927 446.083 354.305 446.624 353.547C447.14 352.771 447.405 351.854 447.382 350.923C447.358 349.991 447.048 349.089 446.493 348.34C448.211 348.479 449.939 348.228 451.546 347.605C452.311 347.301 452.991 346.816 453.528 346.193C454.065 345.569 454.443 344.825 454.629 344.023Z" fill="#B16668"/>
<path d="M389.494 277.133C389.837 276.561 390.028 275.912 390.052 275.247C389.969 274.061 388.996 273.16 388.628 272.033C388.576 271.756 388.458 271.496 388.285 271.274C387.917 270.906 387.478 271.274 387.3 271.606C386.114 273.978 386.66 276.611 387.478 279.018C387.561 279.279 387.692 279.576 387.964 279.659C388.237 279.742 388.557 279.493 388.735 279.244C389.034 278.727 389.235 278.16 389.328 277.571C389.376 277.417 389.435 277.275 389.494 277.133Z" fill="#E0E0E0"/>
<path d="M396.622 409.55C397.705 408.489 398.603 407.254 399.279 405.897C406.727 391.38 411.827 375.144 411.542 358.67C411.234 341.675 408.055 325.545 414.46 309.06C416.476 303.841 419.322 298.777 419.678 293.191C419.832 290.712 419.476 288.21 419.678 285.731C420.046 281.58 422.05 277.749 423.236 273.764C424.272 270.784 424.429 267.569 423.687 264.502C423.345 263.254 422.758 262.086 421.96 261.068C421.161 260.05 420.168 259.201 419.038 258.572C421.41 253.46 418.148 247.364 412.953 246.818C412.681 245.085 411.887 243.475 410.676 242.205C409.564 241.057 408.106 240.307 406.525 240.07C402.967 239.382 399.006 242.252 397.962 245.597C397.861 246.016 397.693 246.417 397.464 246.783C397.137 247.166 396.733 247.477 396.278 247.696C391.344 250.709 387.016 256.805 388.51 262.77C388.961 264.597 389.909 266.328 390.23 268.131C390.965 272.424 388.296 276.516 387.763 280.833C387.288 284.593 388.451 288.34 389.257 292.041C394.084 314.373 385.889 337.441 375.535 357.804C371.289 366.106 363.805 376.65 365.466 386.565C367.126 396.48 373.175 406.098 382.544 410.534C384.716 411.663 387.118 412.28 389.565 412.337C392.192 412.368 394.726 411.367 396.622 409.55Z" fill="#F0997A"/>
<path d="M365.49 386.636C363.829 376.721 371.313 366.225 375.559 357.876C385.913 337.512 394.108 314.444 389.281 292.112C388.474 288.411 387.312 284.664 387.786 280.904C388.32 276.587 390.989 272.495 390.253 268.202C389.933 266.352 388.984 264.644 388.534 262.841C387.039 256.911 391.368 250.78 396.302 247.755C396.758 247.545 397.163 247.238 397.488 246.854C397.716 246.488 397.885 246.088 397.986 245.668C399.03 242.324 402.955 239.453 406.549 240.141C408.129 240.378 409.588 241.128 410.7 242.276C411.915 243.543 412.71 245.154 412.977 246.89C418.172 247.435 421.421 253.531 419.061 258.643C420.192 259.272 421.185 260.121 421.983 261.139C422.782 262.158 423.369 263.325 423.71 264.573C424.452 267.64 424.296 270.855 423.26 273.836C422.074 277.82 420.105 281.651 419.702 285.802C419.476 288.281 419.832 290.783 419.702 293.262C419.37 298.528 416.832 303.331 414.839 308.23L414.554 308.573C409.194 314.622 402.777 321.003 402.694 329.091C402.694 331.214 403.157 333.325 402.967 335.436C402.564 339.848 399.409 343.477 397.666 347.534C395.922 351.59 396.065 357.437 400.133 359.192C397.805 362.168 396.425 365.776 396.171 369.546C396.171 373.305 397.962 377.243 401.354 378.868C402.74 379.486 404.284 379.657 405.772 379.357C407.26 379.058 408.618 378.302 409.656 377.195C407.467 387.208 403.954 396.884 399.208 405.968C398.532 407.325 397.634 408.56 396.551 409.621C394.679 411.473 392.152 412.513 389.518 412.515C387.071 412.458 384.669 411.841 382.497 410.712C373.199 406.205 367.162 396.705 365.49 386.636Z" fill="#F0F0F0"/>
<path d="M365.49 386.636C366.72 395.17 371.198 402.898 377.99 408.209C382.936 411.993 390.49 415.005 396.005 410.581C397.718 409.208 399.087 407.454 400.002 405.458C403.953 397.918 407.056 389.962 409.253 381.738C411.464 373.479 412.439 364.938 412.147 356.393C411.921 347.889 411.044 339.445 411.174 331.024C411.132 322.599 412.824 314.254 416.144 306.51C417.78 302.632 419.63 298.67 420.14 294.318C420.65 289.965 419.571 285.897 420.983 281.758C422.109 277.761 424.137 273.871 424.541 269.495C424.862 267.319 424.53 265.096 423.586 263.109C422.642 261.122 421.129 259.46 419.239 258.335L419.358 258.714C420.176 256.887 420.35 254.837 419.853 252.898C419.355 250.96 418.215 249.247 416.618 248.04C415.558 247.262 414.309 246.783 413.001 246.652L413.108 246.747C412.807 245.085 412.047 243.54 410.913 242.288C409.768 241.052 408.23 240.251 406.561 240.023C408.216 240.294 409.725 241.133 410.83 242.395C411.928 243.672 412.639 245.235 412.882 246.901C414.147 247.062 415.35 247.543 416.377 248.299C417.405 249.054 418.222 250.059 418.753 251.219C419.323 252.377 419.62 253.651 419.62 254.943C419.62 256.234 419.323 257.508 418.753 258.667C427.577 264.015 422.785 273.836 420.14 281.45C418.658 285.506 419.536 290.013 419.109 294.14C417.804 302.442 412.491 309.712 411.245 318.216C408.731 330.811 410.486 343.762 410.913 356.393C411.696 373.317 406.703 389.969 399.231 405.019C396.527 411.364 390.158 413.582 383.92 410.724C374.041 406.691 367.435 396.919 365.596 386.589L365.49 386.636Z" fill="#B16668"/>
<path d="M396.871 265.664C400.429 263.363 400.061 258.773 398.472 255.405C397.618 253.555 395.768 251.954 393.657 252.796C392.556 253.306 391.632 254.132 391 255.168C389.803 256.787 389.223 258.781 389.364 260.79C389.504 261.898 389.867 262.967 390.431 263.932C390.759 264.565 391.202 265.132 391.736 265.605C392.485 266.135 393.377 266.424 394.294 266.435C395.212 266.445 396.11 266.177 396.871 265.664Z" fill="#455A64"/>
<path d="M396.871 265.664C401.841 263.043 400.702 251.23 394.345 251.432C389.696 252.25 387.336 258.287 389.103 262.319C390.443 265.676 393.515 267.692 396.871 265.64V265.664ZM396.871 265.664C391.783 268.629 388.735 261.881 390.74 257.836C391.688 255.856 393.705 252.677 396.124 254.041C399.469 256.413 401.01 263.162 396.871 265.664Z" fill="#37474F"/>
<path d="M406.917 246.119C407.176 246.423 407.392 246.762 407.557 247.127C408.014 248.295 408.185 249.556 408.055 250.803C407.904 253.322 407.302 255.792 406.276 258.097C405.792 259.328 405.043 260.438 404.082 261.347C400.927 264.087 396.646 259.9 396.444 256.532C396.411 255.614 396.503 254.697 396.717 253.804C397.517 250.816 399.26 248.167 401.686 246.249C402.504 245.45 403.592 244.989 404.734 244.956C405.158 244.993 405.569 245.115 405.944 245.315C406.319 245.515 406.65 245.788 406.917 246.119Z" fill="#455A64"/>
<path d="M406.917 246.119C409.146 249.214 407.521 253.674 406.169 256.793C403.999 261.632 400.785 262.877 397.962 257.896C396.349 253.768 398.923 249.024 402.007 246.178C403.418 244.802 405.565 244.446 406.917 246.095V246.119ZM406.917 246.119C405.731 244.435 403.287 244.719 401.805 245.941C398.626 248.194 395.875 251.539 395.424 255.559C394.724 259.924 399.931 265.415 404.201 262.521C407.759 260.066 409.656 249.297 406.917 246.119Z" fill="#37474F"/>
<path d="M415.812 254.848C416.239 256.836 416.215 258.895 415.74 260.873C415.363 262.729 414.433 264.429 413.072 265.747C412.289 266.459 411.4 267.431 410.261 267.348C408.617 267.064 407.152 266.143 406.181 264.786C405.657 264.228 405.229 263.587 404.912 262.889C403.833 260.22 405.446 256.591 406.525 254.16C407.711 251.444 411.02 248.562 413.89 251.088C414.918 252.102 415.592 253.42 415.812 254.848Z" fill="#455A64"/>
<path d="M415.812 254.848C416.535 258.406 415.717 262.628 412.977 265.024C412.353 265.594 411.645 266.066 410.878 266.423C409.526 266.708 408.114 265.296 407.213 264.229C406.663 263.671 406.235 263.004 405.956 262.272C405.602 260.694 405.709 259.047 406.264 257.528C406.681 255.786 407.352 254.116 408.257 252.571C411.02 248.586 415.076 250.649 415.812 254.943V254.848ZM415.812 254.848C415.064 250.187 410.961 248.099 407.355 251.752C406.04 253.237 405.014 254.954 404.331 256.816C403.395 258.753 403.176 260.96 403.714 263.043C404.9 265.806 408.364 269.234 411.53 267.941C415.859 265.213 416.796 259.485 415.812 254.895V254.848Z" fill="#37474F"/>
<path d="M393.135 266.067C393.621 265.251 394.211 264.501 394.891 263.838C398.449 260.374 403.359 261.56 406.596 264.858C410.061 268.54 411.932 273.442 411.803 278.497C411.696 281.165 410.747 284.106 408.364 285.292C407.685 285.629 406.936 285.798 406.179 285.785C405.421 285.773 404.678 285.58 404.011 285.221C401.995 284.142 400.927 281.663 398.828 280.75C395.994 279.493 392.08 280.406 390.882 276.611C390.471 274.906 390.536 273.121 391.072 271.452C391.485 269.563 392.181 267.748 393.135 266.067Z" fill="#37474F"/>
<path d="M413.582 277.05C411.091 276.895 408.696 273.005 408.719 270.716C408.729 270.203 408.805 269.693 408.945 269.198C409.609 266.721 411.078 264.536 413.119 262.984C413.681 262.563 414.346 262.304 415.044 262.233C415.742 262.162 416.446 262.282 417.081 262.58C418.622 263.434 419.132 265.391 419.215 267.146C419.358 270.159 417.875 277.311 413.582 277.05Z" fill="#455A64"/>
<path d="M413.582 277.05C411.091 276.682 409.621 273.978 409.206 271.724C408.826 268.748 412.313 263.909 415.23 263.422C418.207 263.173 418.587 267.301 418.445 269.685C418.278 272.614 417.258 277.073 413.582 277.061V277.05ZM413.582 277.05C417.235 277.05 418.765 272.827 419.619 269.862C420.805 266.399 419.832 260.54 414.981 261.05C411.139 261.655 408.956 265.735 408.328 269.21C407.759 272.282 410.463 276.54 413.582 277.05Z" fill="#37474F"/>
<path d="M405.351 303.082C405.281 303.359 405.128 303.607 404.912 303.794C404.702 303.957 404.459 304.074 404.201 304.138C402.951 304.495 401.641 304.595 400.352 304.434C399.062 304.273 397.817 303.854 396.693 303.201C393.396 301.256 395.78 296.856 399.065 297.034C401.651 297.164 406.276 300.058 405.351 303.082Z" fill="#455A64"/>
<path d="M418.385 257.433C418.515 256.939 418.711 256.464 418.966 256.022C419.079 255.812 419.253 255.64 419.464 255.53C419.676 255.42 419.916 255.377 420.152 255.405C420.346 255.449 420.528 255.532 420.689 255.648C420.85 255.764 420.986 255.911 421.089 256.081C421.555 256.588 421.912 257.186 422.136 257.837C422.361 258.488 422.448 259.178 422.394 259.864C422.32 260.262 422.148 260.635 421.894 260.949C421.64 261.264 421.311 261.51 420.938 261.665C420.565 261.821 420.159 261.881 419.756 261.84C419.354 261.798 418.968 261.658 418.634 261.43C417.733 260.92 417.958 258.904 418.385 257.433Z" fill="#E0E0E0"/>
<path d="M413.985 249.689C413.678 249.677 413.378 249.596 413.108 249.451C411.922 248.716 412.918 246.403 412.882 245.3C412.852 244.975 412.876 244.646 412.953 244.328C413.523 242.513 415.444 243.96 416.073 244.838C416.844 245.869 417.287 247.109 417.342 248.396C417.306 249.997 415.1 249.807 413.985 249.689Z" fill="#E0E0E0"/>
<path d="M403.928 242.371C403.751 242.268 403.604 242.121 403.501 241.944C403.393 241.702 403.348 241.437 403.37 241.173C403.37 240.545 403.501 239.916 403.442 239.287C403.335 238.279 402.552 236.085 404.331 236.263C404.959 236.359 405.53 236.685 405.932 237.176C406.522 237.959 407.005 238.816 407.367 239.726C407.723 240.462 408.055 242.098 407.059 242.537C406.031 242.87 404.915 242.811 403.928 242.371Z" fill="#E0E0E0"/>
<path d="M393.23 246.071C393.082 246.269 392.988 246.502 392.957 246.747C392.836 247.287 392.745 247.834 392.685 248.384C392.591 248.829 392.633 249.291 392.803 249.712C393.598 251.325 396.361 250.839 396.254 248.941C396.124 247.874 394.511 244.541 393.23 246.071Z" fill="#E0E0E0"/>
<path d="M419.725 135.821C411.786 147.313 408.607 161.434 410.854 175.22L412.206 181.458C415.761 194.226 423.675 205.346 434.574 212.887C459.99 230.523 494.692 224.688 511.925 199.841C519.353 189.108 522.631 176.043 521.152 163.075L520.097 156.813C516.954 142.992 508.739 130.853 497.076 122.798C471.66 105.163 436.958 110.998 419.725 135.821Z" fill="white"/>
<path d="M499.733 118.98C527.307 138.122 534.53 175.611 515.827 202.521C499.057 226.68 467.035 234.247 440.729 221.735L425.311 231.993C424.719 232.382 424.023 232.584 423.315 232.575C422.606 232.565 421.917 232.344 421.334 231.94C420.752 231.537 420.304 230.968 420.047 230.308C419.789 229.647 419.735 228.925 419.891 228.234L424.102 210.183C403.169 189.902 399.065 157.275 415.8 133.093C434.515 106.194 472.158 99.8494 499.733 118.98ZM419.725 135.821C411.786 147.313 408.607 161.434 410.854 175.22L412.206 181.458C415.761 194.226 423.675 205.346 434.574 212.887C459.99 230.523 494.692 224.688 511.925 199.841C519.353 189.108 522.631 176.043 521.152 163.075L520.097 156.813C516.954 142.992 508.739 130.853 497.076 122.798C471.66 105.163 436.958 110.998 419.725 135.821Z" fill="#455A64"/>
<path opacity="0.7" d="M419.725 135.821C411.786 147.313 408.607 161.434 410.854 175.22L412.206 181.458C415.761 194.226 423.675 205.346 434.574 212.887C459.99 230.523 494.692 224.688 511.925 199.841C519.353 189.108 522.631 176.043 521.152 163.075L520.097 156.813C516.954 142.992 508.739 130.853 497.076 122.798C471.66 105.163 436.958 110.998 419.725 135.821Z" fill="white"/>
<path d="M471.554 162.767C473.712 164.522 474.946 167.167 476.843 169.207C479.701 172.266 483.959 173.808 486.723 176.904C488.492 178.983 489.602 181.542 489.91 184.254C490.219 186.966 489.712 189.709 488.454 192.132C487.13 194.515 485.21 196.514 482.881 197.932C480.553 199.35 477.896 200.138 475.171 200.221C471.376 200.339 467.616 199.639 463.809 199.758C460.358 199.877 457.12 200.944 453.586 200.493C450.3 200.091 447.276 198.501 445.082 196.022C443.757 194.509 442.93 192.625 442.71 190.626C442.295 187.305 442.212 182.419 444.145 179.489C445.924 176.797 448.806 175.374 451.19 173.334C453.574 171.294 455.258 168.21 457.286 165.625C460.808 161.189 466.691 158.805 471.554 162.767Z" fill="#92E3A9"/>
<path d="M485.074 168.507C484.445 167.766 483.882 166.973 483.39 166.135C481.872 163.668 482.085 161.474 483.39 158.924C484.539 156.895 486.027 155.077 487.79 153.551C489.079 152.303 490.566 151.277 492.19 150.515C492.713 150.269 493.284 150.141 493.862 150.141C494.44 150.141 495.011 150.269 495.535 150.515C496.993 151.274 497.598 153.053 497.907 154.678C498.357 157.185 498.393 159.75 498.013 162.269C497.74 164.346 496.962 166.325 495.748 168.032C495.159 168.892 494.382 169.606 493.476 170.12C492.57 170.634 491.558 170.934 490.518 170.997C488.619 170.974 486.802 170.222 485.442 168.898L485.074 168.507Z" fill="#92E3A9"/>
<path d="M484.362 142.664C484.362 138.643 483.248 134.741 479.476 132.915C475.076 130.78 471.091 135.453 469.703 139.153C468.316 142.854 467.498 147.918 468.933 151.903C470.842 157.098 476.12 157.738 479.951 154.18C482.987 151.345 484.291 146.72 484.362 142.664Z" fill="#92E3A9"/>
<path d="M445.936 169.052C446.606 168.335 447.213 167.561 447.751 166.74C449.399 164.368 449.316 162.174 448.13 159.541C447.102 157.447 445.722 155.546 444.05 153.919C442.864 152.628 441.479 151.535 439.947 150.681C439.441 150.403 438.88 150.239 438.304 150.203C437.728 150.166 437.151 150.256 436.614 150.468C435.108 151.144 434.408 152.84 434.029 154.488C433.438 156.968 433.254 159.528 433.483 162.067C433.595 164.162 434.218 166.198 435.298 167.997C435.838 168.888 436.573 169.644 437.448 170.209C438.324 170.774 439.316 171.133 440.35 171.258C442.248 171.344 444.108 170.699 445.545 169.456L445.936 169.052Z" fill="#92E3A9"/>
<path d="M447.122 142.427C447.324 138.406 448.759 134.587 452.637 133.01C457.179 131.183 460.844 136.105 461.983 139.889C463.169 143.85 463.607 148.772 461.911 152.662C459.705 157.726 454.345 157.999 450.763 154.192C447.928 151.168 446.932 146.471 447.122 142.427Z" fill="#92E3A9"/>
</svg>
